<?xml version="1.0" encoding="UTF-8"?>
<svg width="572px" height="569px" viewBox="0 0 572 569" version="1.1" xmlns="http://www.w3.org/2000/svg" xmlns:xlink="http://www.w3.org/1999/xlink">
    <!-- Generator: Sketch 51.3 (57544) - http://www.bohemiancoding.com/sketch -->
    <title>Big Heart</title>
    <desc>Created with Sketch.</desc>
    <defs></defs>
    <g id="Desktop" stroke="none" stroke-width="1" fill="none" fill-rule="evenodd" opacity="0.25">
        <g id="Home_Shop-Hover" transform="translate(-374.000000, -1464.000000)">
            <g id="Health-Message" transform="translate(255.000000, 1465.000000)">
                <g id="Big-Heart" transform="translate(120.000000, 0.000000)">
                    <path d="M285.520675,214.466048 C290.945386,205.357233 297.762279,198.251403 306.355405,193.053178 C340.391865,172.54642 383.837558,193.053178 391.614577,233.637483 C395.791124,254.907283 390.510432,273.983337 375.964526,289.33956 C359.35435,306.69877 342.120091,323.628768 325.173871,340.749526 C314.228437,351.861327 303.138983,363.020819 292.145543,374.228001 L285.520675,381 L278.751788,374.03724 C255.56475,350.573694 232.281699,327.253218 209.142667,303.694291 C202.997862,297.542264 196.709038,291.676377 191.284327,284.904378 C163.728716,250.519791 181.347025,196.200727 222.920472,186.61501 C247.163649,181.035264 270.83075,191.193263 284.560549,212.987654 C284.752574,213.512246 285.088618,213.798387 285.520675,214.466048" id="Heart" fill="#EED6D3"></path>
                    <path d="M285.478361,39 C150.101719,39 40,148.419355 40,282.956989 C40,417.537634 150.101719,527 285.478361,527 C420.855002,527 531,417.537634 531,282.956989 C531,148.419355 420.855002,39 285.478361,39" id="Stroke" stroke="#EED6D3" stroke-width="2"></path>
                    <path d="M284.978368,567 C127.844402,567 0,439.81881 0,283.456961 C0,127.18119 127.844402,0 284.978368,0 C442.155598,0 570,127.18119 570,283.456961 C570,439.81881 442.155598,567 284.978368,567" id="Stroke" stroke="#EED6D3" stroke-width="2"></path>
                </g>
            </g>
        </g>
    </g>
</svg>