<?xml version="1.0" encoding="UTF-8"?>
<svg width="128px" height="128px" viewBox="0 0 128 128" version="1.1" xmlns="http://www.w3.org/2000/svg" xmlns:xlink="http://www.w3.org/1999/xlink">
    <!-- Generator: Sketch 51.3 (57544) - http://www.bohemiancoding.com/sketch -->
    <title>Cruelty Free Icon</title>
    <desc>Created with Sketch.</desc>
    <defs></defs>
    <g id="Desktop" stroke="none" stroke-width="1" fill="none" fill-rule="evenodd">
        <g id="Ingredients" transform="translate(-957.000000, -3392.000000)" stroke="#EED6D3">
            <g id="Explanations" transform="translate(0.000000, 2400.000000)">
                <g id="Cruelty-Free" transform="translate(872.000000, 992.000000)">
                    <g id="Cruelty-Free-Icon" transform="translate(85.000000, 0.000000)">
                        <path d="M64,1 C29.2050847,1 1,29.2050847 1,64 C1,98.7907411 29.2073105,127 64,127 C98.7885153,127 127,98.7885153 127,64 C127,29.2073105 98.7907411,1 64,1 Z" id="Stroke-1" stroke-width="2"></path>
                        <path d="M64,9 C33.6234847,9 9,33.6234847 9,64 C9,94.3728648 33.6254342,119 64,119 C94.3709153,119 119,94.3709153 119,64 C119,33.6254342 94.3728648,9 64,9 Z" id="Stroke-1" stroke-width="2"></path>
                        <g id="Bunny" transform="translate(32.000000, 31.000000)" fill="#EED6D3">
                            <path d="M10.6940839,37.4246868 C10.3504476,38.6759165 10.1947832,39.8774478 10.1566014,41.0000464 L10.7087692,37.3574478 L10.7087692,37.3457541 C10.7058322,37.372065 10.699958,37.3983759 10.6940839,37.4246868 Z M11.7778601,48.6419026 C11.7807972,48.647763 11.7807972,48.6506932 11.7807972,48.6565537 L11.7807972,48.6419026 L11.7778601,48.6419026 Z M45.7009371,46.6685847 L45.6891888,46.677355 L45.7831748,47.054478 C45.7626154,46.9492343 45.7361818,46.8176798 45.7009371,46.6685847 Z M10.6940839,37.4246868 C10.3504476,38.6759165 10.1947832,39.8774478 10.1566014,41.0000464 L10.7087692,37.3574478 L10.7087692,37.3457541 C10.7058322,37.372065 10.699958,37.3983759 10.6940839,37.4246868 Z M11.7778601,48.6419026 C11.7807972,48.647763 11.7807972,48.6506932 11.7807972,48.6565537 L11.7807972,48.6419026 L11.7778601,48.6419026 Z M45.7009371,46.6685847 L45.6891888,46.677355 L45.7831748,47.054478 C45.7626154,46.9492343 45.7361818,46.8176798 45.7009371,46.6685847 Z" id="Fill-1"></path>
                            <path d="M59.7426058,24.8306897 C59.7426058,24.8210297 59.7424658,24.8112297 59.7424658,24.8015697 C59.7423258,24.8112297 59.7431658,24.8211697 59.7426058,24.8306897" id="Fill-3"></path>
                            <path d="M56.7825175,25.1725476 C56.8295105,25.4590441 57.079021,25.6666079 57.3611189,25.6666079 C57.3932867,25.6666079 57.4226573,25.6636845 57.4551049,25.6578376 L58.1893706,25.5409002 C57.833986,28.0609002 55.4283916,28.8122227 55.128951,28.8970023 C55.034965,28.9145429 54.9439161,28.9496241 54.8675524,29.0051694 C54.4123077,29.0782552 52.9848951,29.2039629 50.8025175,28.4672575 C48.8082517,27.7948677 48.3588811,27.297884 48.2855944,27.2014107 C48.2239161,26.9499954 47.9976224,26.7599722 47.7216783,26.7570487 L47.7158042,26.7570487 C47.3956643,26.7570487 47.1311888,27.0172343 47.1283916,27.3358886 C47.1225175,27.850413 47.6923077,28.6543573 50.4267133,29.575239 C51.7629371,30.0254478 52.8584615,30.1862367 53.6721678,30.2242413 C52.7820979,31.6276288 53.0053147,33.3026172 53.0201399,33.3961671 L53.0318881,33.4575592 C54.6001399,39.5061439 48.7965035,44.4379768 46.7405594,45.9612251 C46.493986,44.9788121 46.018042,43.4469327 45.3307692,42.7015963 C45.1106294,42.4646589 44.7404196,42.4471183 44.4997203,42.6665151 C44.2618182,42.8856334 44.2441958,43.2539861 44.4644755,43.4937077 C45.0283916,44.1048445 45.4923077,45.7447517 45.700979,46.6686961 C45.7362238,46.817652 45.7626573,46.9492065 45.7830769,47.0544501 L45.788951,47.0836845 C45.98,47.8613179 45.5393007,51.7582552 45.2132867,54.067768 C45.0401399,54.673058 45.3072727,55.2283712 45.3397203,55.2897633 L45.5040559,55.6142645 L45.8711888,55.6113411 L45.8770629,55.6113411 C46.2355245,55.6113411 47.005035,55.845355 47.4661538,56.0147749 C48.4618182,56.8188585 48.1534266,57.9385336 47.9272727,58.4646125 L43.4629371,58.5435452 L39.4420979,49.7235452 L38.878042,50.7584408 C38.3054545,51.8139397 35.5327273,52.840065 33.2331469,53.4450766 C34.1405594,51.9570487 35.3037762,49.37858 34.6662937,46.6394617 C33.7118881,42.5465151 30.4927273,40.2779304 28.6188811,40.0352854 C28.293007,39.9914339 28.0022378,40.2194617 27.9581818,40.538116 C27.9170629,40.8596937 28.1432168,41.1521763 28.4662937,41.1931044 C29.8055944,41.3683712 32.6633566,43.2218283 33.5237762,46.9024316 C34.2493706,50.0217355 32.1346853,53.0621067 31.5588811,53.8134292 C30.9655944,53.8835916 29.3767832,54.0999258 27.2738462,54.6232204 C26.9595804,54.7022923 26.7685315,55.0209466 26.847972,55.3336148 C26.9125874,55.5996473 27.1532867,55.7751926 27.4177622,55.7751926 C27.4646154,55.7751926 27.5116084,55.7693457 27.5587413,55.757652 C30.1020979,55.1261903 31.9055944,54.950645 31.9232168,54.950645 L32.1611189,54.9272575 C34.4548252,54.7315267 37.4537063,55.380529 37.9559441,55.4973271 C39.9324476,56.5789977 40.2702098,57.4004826 40.2937063,57.7951462 C40.3172028,58.1634988 40.0882517,58.4499954 39.9441958,58.5932436 L25.8170629,58.7044733 L25.7700699,58.7044733 C25.3735664,58.7395545 22.3306294,58.7540325 20.2542657,58.7540325 C20.1160839,58.6254014 19.9429371,58.4150534 19.9253147,58.1898097 C19.9106294,57.9763991 20.0398601,57.7366775 20.3159441,57.4823387 L21.1822378,56.6696241 L20.0046154,56.4768167 C19.9928671,56.4768167 18.7504895,56.2603434 16.673986,54.8921763 C12.1685315,51.9219675 11.7867133,48.7120371 11.7808392,48.6564919 C11.7808392,48.650645 11.7808392,48.6477216 11.7779021,48.6418747 C11.772028,48.5687889 11.7485315,48.4958422 11.7102098,48.4256798 C11.6896503,48.387536 10.0303497,45.2945429 10.1566434,41.0146357 C10.1595804,41.0087889 10.1595804,41.002942 10.1566434,41.0000186 C10.1946853,39.87742 10.3504895,38.6760278 10.6941259,37.4246589 C10.7,37.398348 10.7058741,37.3720371 10.7088112,37.3457262 C10.7146853,37.3194153 10.7146853,37.2931044 10.7146853,37.2667935 L10.7146853,37.2404826 C10.7205594,37.1586265 10.8057343,36.2962135 12.192028,34.2382552 C15.4903497,29.3472111 20.1307692,26.6693457 25.9843357,26.2834524 C30.3900699,25.991109 33.8732867,27.1780232 33.9085315,27.1897169 L33.9615385,27.2043341 C35.9851748,27.7071647 37.488951,27.560993 38.4258741,26.7745893 C39.4420979,25.9209466 39.3626573,24.6609466 39.3598601,24.6083248 L39.3422378,24.5118515 C39.2862937,24.2019675 39.5184615,22.6028492 39.7709091,21.3019211 L39.8709091,20.7873968 L39.3685315,20.6324548 C30.1756643,17.7674896 27.8023776,10.6138469 27.2709091,8.35403248 C36.6195804,8.80716473 41.4334266,17.5043805 41.4804196,17.595007 L41.8151049,18.2118515 L43.2925874,17.0366311 C43.2925874,17.0366311 43.2953846,17.0337077 43.3012587,17.0307842 C43.3043357,17.0278608 43.3102098,17.0249374 43.3188811,17.0190905 C43.5744056,16.8641485 45.6246154,15.6509234 47.2370629,15.8146357 L47.6159441,15.8818747 C53.3285315,16.8816891 55.4107692,20.5155174 55.4432168,20.5739861 C56.6033566,22.4859118 57.8163636,23.6845197 57.8662937,23.7342181 L57.8751049,23.7429884 C58.1216783,23.9739397 58.2832168,24.1698097 58.3861538,24.3276752 L57.2699301,24.5030812 C56.9497902,24.5527796 56.7325874,24.8538933 56.7825175,25.1725476 M7.29874126,49.4692065 L7.24587413,49.4692065 C3.47482517,49.4692065 1.1986014,46.2592761 1.1751049,43.1370487 C1.16335664,41.7747285 1.76237762,40.3862367 2.81986014,39.3219675 C4.02391608,38.1087425 5.67762238,37.4392761 7.46923077,37.4334292 C8.57356643,37.4363527 9.1579021,37.5037309 9.44867133,37.5621995 C8.06825175,43.1984408 10.0567832,47.7357494 10.5676923,48.7735684 C10.373986,49.0102274 9.55160839,49.4516659 7.29874126,49.4692065 M37.2158042,1.62721114 C44.5467133,3.9718051 46.5674126,12.1486497 47.0167832,14.6394153 C45.4072727,14.610181 43.7008392,15.4579768 42.9959441,15.8526404 C37.013007,11.7510626 37.0572028,3.9630348 37.2158042,1.62721114 M59.7430769,24.8012715 C59.7458741,24.7691137 59.7430769,24.7369559 59.7372028,24.7047981 C59.699021,24.1288817 59.3524476,23.5208074 58.6886713,22.898116 C58.6123077,22.8221067 57.4991608,21.6965847 56.4623776,19.9922227 C56.3713287,19.825587 54.2184615,16.0105058 48.2384615,14.8089745 C47.8830769,12.595935 45.7979021,2.62702552 36.8455944,0.305819026 L36.2083916,0.139183295 L36.1172028,0.788185615 C36.0702098,1.10391647 35.3507692,6.48595824 37.7444755,11.4441021 C35.1040559,9.21936891 31.367972,7.17881206 26.5572028,7.16711833 L25.8787413,7.1641949 L25.9725874,7.83073782 C25.9872727,7.933058 27.4881119,17.8727332 38.5226573,21.5854942 C38.3376224,22.5853086 38.093986,24.1201114 38.187972,24.7164919 C38.187972,24.8538933 38.1672727,25.4707378 37.6593007,25.8887889 C37.0337063,26.4033132 35.8647552,26.4676288 34.2697902,26.0758886 C33.8998601,25.950181 30.4281119,24.8275824 25.9521678,25.1140789 C21.6492308,25.3888817 15.599021,27.0815499 11.2169231,33.5861903 C10.326993,34.9075824 9.90391608,35.8255406 9.70727273,36.4219211 C9.25202797,36.3225244 8.55594406,36.2611323 7.46629371,36.2640557 C5.35748252,36.2699026 3.41020979,37.0650766 1.98573427,38.5004826 C0.710909091,39.7838701 -0.0145454545,41.4766775 0.00027972028,43.145819 C0.0296503497,46.8410394 2.7434965,50.63858 7.24587413,50.63858 L7.30755245,50.63858 C8.95832168,50.6268863 10.1654545,50.4017819 10.9142657,49.9661903 C11.4107692,51.3402042 12.7001399,53.6731044 16.0248951,55.8686032 C17.2848951,56.6988585 18.2804196,57.1461439 18.9355245,57.3800186 C18.7651748,57.7308306 18.7358042,58.0465615 18.7563636,58.2892065 C18.8297902,59.2071647 19.6286713,59.7626172 19.7195804,59.8241485 L19.8695105,59.923406 L20.0457343,59.923406 C20.5744056,59.923406 25.1562238,59.9204826 25.8464336,59.8737077 L40.3437762,59.7598329 L40.4934266,59.660297 C40.8781818,59.3944037 41.5184615,58.6955638 41.4686713,57.7425244 C41.4068531,56.5965383 40.3935664,55.48271 38.4493706,54.4302738 L38.3818182,54.3953318 L38.3054545,54.3777912 C38.226014,54.3571879 37.1394406,54.0999258 35.7296503,53.9129652 C37.0395804,53.4538469 38.3906294,52.8486961 39.2393007,52.1119907 L42.711049,59.7246125 L48.6290909,59.6222923 L48.7965035,59.3416427 C49.3370629,58.4383016 49.8892308,56.3743573 48.1123077,55.0326404 L48.0446154,54.9828028 L47.9654545,54.950645 C47.8537063,54.9097169 47.0254545,54.5998329 46.3295105,54.485819 C46.3295105,54.4478144 46.3353846,54.4098097 46.3471329,54.3747285 L46.3706294,54.2753318 C46.5027972,53.3369095 47.1076923,48.9429884 46.9874126,47.2327796 C48.6527273,46.0897169 56.0511888,40.5439629 54.1773427,33.2032204 C54.1478322,32.9313411 53.9774825,30.9669327 55.4871329,30.0371415 C55.4960839,30.0312947 55.5047552,30.0254478 55.5137063,30.0196009 L55.5752448,29.9815963 C56.3008392,29.750645 58.8531469,28.7362135 59.3348252,25.8390905 C59.507972,25.6578376 59.7107692,25.3596473 59.7430769,24.9269791 C59.7458741,24.8948213 59.7430769,24.8626636 59.7430769,24.8305058 C59.7430769,24.8421995 59.74,24.8509698 59.7372028,24.8626636 C59.74,24.8421995 59.7430769,24.8217355 59.7430769,24.8012715" id="Fill-6"></path>
                            <path d="M52.4427552,22.4236009 C52.2593986,22.4236009 52.0786993,22.3385429 51.964014,22.1785893 L51.7296084,21.852 C51.5413566,21.5893086 51.6023357,21.2241578 51.8665315,21.0365012 C52.1298881,20.8488445 52.4973007,20.9095406 52.685972,21.1725104 L52.9203776,21.4990998 C53.1087692,21.7617912 53.0476503,22.1270812 52.7835944,22.3145986 C52.6802378,22.3882413 52.5609371,22.4236009 52.4427552,22.4236009" id="Fill-9"></path>
                        </g>
                    </g>
                </g>
            </g>
        </g>
    </g>
</svg>