<?xml version="1.0" encoding="UTF-8"?>
<svg width="128px" height="128px" viewBox="0 0 128 128" version="1.1" xmlns="http://www.w3.org/2000/svg" xmlns:xlink="http://www.w3.org/1999/xlink">
    <!-- Generator: Sketch 51.3 (57544) - http://www.bohemiancoding.com/sketch -->
    <title>GMO Icon</title>
    <desc>Created with Sketch.</desc>
    <defs>
        <polygon id="path-1" points="6.62258188e-06 4.42443707e-07 47.9731765 4.42443707e-07 47.9731765 51.9171694 6.62258188e-06 51.9171694"></polygon>
    </defs>
    <g id="Desktop" stroke="none" stroke-width="1" fill="none" fill-rule="evenodd">
        <g id="Ingredients" transform="translate(-356.000000, -3392.000000)">
            <g id="Explanations" transform="translate(0.000000, 2400.000000)">
                <g id="Non-GMO" transform="translate(272.000000, 992.000000)">
                    <g id="GMO-Icon" transform="translate(84.000000, 0.000000)">
                        <path d="M64,1 C29.2050847,1 1,29.2050847 1,64 C1,98.7907411 29.2073105,127 64,127 C98.7885153,127 127,98.7885153 127,64 C127,29.2073105 98.7907411,1 64,1 Z" id="Stroke-1" stroke="#EED6D3" stroke-width="2"></path>
                        <path d="M64,9 C33.6234847,9 9,33.6234847 9,64 C9,94.3728648 33.6254342,119 64,119 C94.3709153,119 119,94.3709153 119,64 C119,33.6254342 94.3728648,9 64,9 Z" id="Stroke-1" stroke="#EED6D3" stroke-width="2"></path>
                        <g id="Butterfly" transform="translate(40.000000, 38.000000)">
                            <mask id="mask-2" fill="white">
                                <use xlink:href="#path-1"></use>
                            </mask>
                            <g id="Clip-2"></g>
                            <path d="M29.3767059,27.19034 C29.4573782,27.07034 29.4977143,27.01034 29.4977143,27.01034 C34.4590588,13.89034 42.6674622,13.57034 43.0708235,18.33034 C43.9380504,28.49034 36.1733445,41.23034 34.3783866,44.03034 C33.7531765,40.25034 32.1397311,33.95034 29.3767059,27.19034 M32.1598992,45.85034 C26.3514958,43.35034 19.1111597,44.51054 13.524605,41.93034 C4.63048739,37.81034 10.4187227,28.55034 10.4187227,28.55034 C2.67418487,11.23034 8.90611765,9.35034 12.5363697,11.55034 C26.8758655,20.21034 34.2573782,46.75034 32.1598992,45.85034 M47.6086387,11.57034 C46.7414118,6.93034 35.709479,6.51034 28.0859496,24.25034 C24.012,15.23034 17.9010756,5.91034 9.34981513,0.85034 C4.50947899,-2.00966 -6.32077311,1.33034 4.95317647,26.73034 C4.95317647,26.73034 -0.250184874,35.67034 5.67922689,41.31054 C14.3716639,49.57034 22.3178824,46.17034 32.1598992,47.39034 C30.304437,50.29034 34.5598992,54.55034 34.9834286,49.75034 C35.0439328,49.01054 34.9229244,47.93034 34.7212437,46.83034 C37.1817479,43.65034 50.3111597,25.91034 47.6086387,11.57034" id="Fill-1" fill="#EED6D3" mask="url(#mask-2)"></path>
                        </g>
                    </g>
                </g>
            </g>
        </g>
    </g>
</svg>