<?xml version="1.0" encoding="UTF-8"?>
<svg width="799px" height="222px" viewBox="0 0 799 222" version="1.1" xmlns="http://www.w3.org/2000/svg" xmlns:xlink="http://www.w3.org/1999/xlink">
    <!-- Generator: Sketch 51.3 (57544) - http://www.bohemiancoding.com/sketch -->
    <title>Heart Loop</title>
    <desc>Created with Sketch.</desc>
    <defs></defs>
    <g id="Desktop" stroke="none" stroke-width="1" fill="none" fill-rule="evenodd">
        <g id="Makeup-Landing" transform="translate(-348.000000, -172.000000)" stroke="#EED6D3">
            <g id="Marquee" transform="translate(255.000000, 148.000000)">
                <g id="Heart-Loop" transform="translate(94.000000, 0.000000)">
                    <path d="M719.439788,51.3690413 C755.27699,29.9636509 801.021232,51.3690413 809.209704,93.7318021 C813.607217,115.933672 808.047143,135.845663 792.731668,151.874816 C775.242709,169.994728 757.09665,187.66662 739.253869,205.537631 C727.729352,217.136366 716.053198,228.784881 704.478135,240.483176 L697.50277,247.551932 L690.375767,240.284056 C665.961989,215.792307 641.447119,191.449898 617.083887,166.858589 C610.613983,160.436972 603.992441,154.314035 598.280729,147.245278 C569.267254,111.353914 587.817681,54.6545198 631.590624,44.6487443 C657.116417,38.8244869 682.035656,49.4276221 696.491848,72.1770718 C696.694032,72.7246516 697.047855,73.0233314 697.50277,73.7202511 C703.214482,64.2122754 710.392032,56.7950588 719.439788,51.3690413 Z" id="duplicate_20_original_original_Fill-1_57722099_62794921" opacity="0.272063438" transform="translate(697.481001, 145.257448) rotate(342.000000) translate(-697.481001, -145.257448) "></path>
                    <path d="M683.962692,54.1439421 C718.547001,33.4868987 762.691993,54.1439421 770.594191,95.0256722 C774.837964,116.45135 769.472274,135.667204 754.692238,151.135967 C737.814705,168.622394 720.303045,185.676465 703.084059,202.922694 C691.962447,214.115929 680.694499,225.357204 669.524108,236.646519 L662.792607,243.468147 L655.914768,236.45436 C632.354512,212.818859 608.696699,189.327477 585.185222,165.595897 C578.94151,159.398784 572.551462,153.489909 567.039435,146.668281 C539.040291,112.031703 556.942183,57.3145581 599.184794,47.6585913 C623.818188,42.0379539 647.866234,52.2703963 661.817027,74.2245099 C662.012143,74.7529459 662.353596,75.0411837 662.792607,75.7137386 C668.304633,66.5381682 675.231251,59.3802624 683.962692,54.1439421 Z" id="duplicate_19_original_original_Fill-1_57722099_62794921" opacity="0.934785322" transform="translate(662.771599, 144.749946) rotate(324.000000) translate(-662.771599, -144.749946) "></path>
                    <path d="M649.288811,56.968803 C682.833219,36.9328876 725.650834,56.968803 733.315424,96.6212774 C737.431592,117.402715 732.227241,136.040776 717.89162,151.044415 C701.52157,168.00505 684.536461,184.546329 667.835226,201.273989 C657.048025,212.130659 646.118888,223.033925 635.284376,233.983786 L628.755281,240.600297 L622.084249,233.797405 C599.232417,210.87259 576.28596,188.087561 553.48144,165.069556 C547.425468,159.058781 541.227559,153.327577 535.881271,146.711066 C508.724021,113.115961 526.087629,60.044083 567.060065,50.6784574 C590.952767,45.2268247 614.277722,55.151592 627.809035,76.4455765 C627.998284,76.9581232 628.32947,77.2376941 628.755281,77.8900262 C634.101569,68.9903522 640.819913,62.0476745 649.288811,56.968803 Z" id="duplicate_18_original_original_Fill-1_57722099_62794921" opacity="0.67121869" transform="translate(628.734905, 144.850413) rotate(306.000000) translate(-628.734905, -144.850413) "></path>
                    <path d="M613.837876,59.7453311 C646.136329,40.453619 687.363549,59.7453311 694.743449,97.9249752 C698.706729,117.934518 693.695686,135.880297 679.892539,150.326649 C664.13053,166.657308 647.776306,182.584186 631.695413,198.690523 C621.308886,209.143939 610.785695,219.642219 600.353614,230.185364 L594.067032,236.556116 L587.643786,230.005906 C565.64075,207.932599 543.546604,185.993884 521.589123,163.830847 C515.75809,158.043334 509.790393,152.525007 504.642685,146.154255 C478.494149,113.806989 495.212812,62.7063846 534.66339,53.6886308 C557.668635,48.4394905 580.12722,57.9956177 593.155933,78.4986698 C593.338153,78.9921787 593.657038,79.2613654 594.067032,79.8894677 C599.21474,71.3203583 605.683542,64.6355558 613.837876,59.7453311 Z" id="duplicate_17_original_original_Fill-1_57722099_62794921" opacity="0.79338921" transform="translate(594.047413, 144.362714) rotate(288.000000) translate(-594.047413, -144.362714) "></path>
                    <path d="M578.121043,62.5053204 C609.103031,43.9999263 648.649856,62.5053204 655.728956,99.1287863 C659.530695,118.322753 654.723899,135.537073 641.48336,149.394601 C626.3638,165.059632 610.676165,180.337341 595.250718,195.787193 C585.28754,205.814535 575.193267,215.884912 565.186391,225.998325 L559.156046,232.109409 L552.994607,225.826182 C531.888401,204.652568 510.694799,183.608062 489.632291,162.348377 C484.038928,156.796759 478.31447,151.503355 473.376579,145.392272 C448.293842,114.36346 464.331062,65.3456832 502.17366,56.6954874 C524.241225,51.6602988 545.784413,60.8269242 558.282083,80.4942849 C558.456876,80.9676787 558.762763,81.2258935 559.156046,81.8283947 C564.093937,73.6085569 570.299075,67.1962226 578.121043,62.5053204 Z" id="duplicate_16_original_original_Fill-1_57722099_62794921" opacity="0.258520339" transform="translate(559.137227, 143.673752) rotate(270.000000) translate(-559.137227, -143.673752) "></path>
                    <path d="M542.65768,65.2810755 C572.390417,47.5218532 610.342641,65.2810755 617.136299,100.427816 C620.784745,118.847846 616.171767,135.368053 603.465111,148.66682 C588.9552,163.700208 573.900119,178.361891 559.096655,193.188777 C549.53521,202.811798 539.847958,212.476119 530.244577,222.18174 L524.457387,228.046414 L518.544389,222.016538 C498.289224,201.696684 477.950187,181.500731 457.736958,161.098275 C452.36913,155.770509 446.875493,150.690545 442.136707,144.825872 C418.065351,115.048199 433.455922,68.0069097 469.772636,59.7055057 C490.950396,54.8733452 511.624923,63.6703554 523.618664,82.5446917 C523.786409,82.9989974 524.079962,83.2468005 524.457387,83.8250077 C529.196173,75.936609 535.151108,69.7828319 542.65768,65.2810755 Z" id="duplicate_15_original_original_Fill-1_57722099_62794921" opacity="0.400433474" transform="translate(524.439327, 143.176646) rotate(252.000000) translate(-524.439327, -143.176646) "></path>
                    <path d="M507.969881,68.1050706 C536.659026,50.9691808 573.279161,68.1050706 579.834368,102.018192 C583.354756,119.791696 578.90369,135.732059 566.643026,148.564051 C552.6424,163.069781 538.115738,177.216852 523.831862,191.523328 C514.606016,200.808589 505.258777,210.133701 495.992466,219.498664 L490.408402,225.157493 L484.702944,219.33926 C465.158717,199.732614 445.533562,180.245521 426.029799,160.559173 C420.850376,155.418407 415.549561,150.516745 410.977102,144.857916 C387.75063,116.125413 402.601005,70.7352304 437.643035,62.7251982 C458.077475,58.0626422 478.026345,66.5508852 489.599117,84.7627495 C489.760974,85.2011094 490.044223,85.4402149 490.408402,85.9981276 C494.980861,78.3866045 500.726782,72.4488194 507.969881,68.1050706 Z" id="duplicate_14_original_original_Fill-1_57722099_62794921" opacity="0.412797707" transform="translate(490.390975, 143.266577) rotate(234.000000) translate(-490.390975, -143.266577) "></path>
                    <path d="M472.535988,70.8826587 C499.983696,54.488273 535.019205,70.8826587 541.290755,103.328292 C544.658809,120.332701 540.40035,135.583292 528.670229,147.860018 C515.275438,161.738057 501.377374,175.272956 487.71159,188.960362 C478.884964,197.843832 469.942199,206.765427 461.07686,215.72515 L455.734429,221.13911 L450.275858,215.572644 C431.577348,196.814417 412.801412,178.170569 394.141616,159.336088 C389.186318,154.417773 384.114879,149.728216 379.74028,144.314256 C357.518863,116.825065 371.726633,73.3990063 405.252325,65.7355842 C424.802526,61.2747862 443.888168,69.3957261 454.960163,86.8195267 C455.115016,87.2389179 455.386009,87.4676768 455.734429,88.0014475 C460.109028,80.7192901 465.606312,75.0384449 472.535988,70.8826587 Z" id="duplicate_13_original_original_Fill-1_57722099_62794921" opacity="0.338134761" transform="translate(455.717756, 142.791777) rotate(216.000000) translate(-455.717756, -142.791777) "></path>
                    <path d="M436.802256,73.6415969 C462.929019,58.0362058 496.278413,73.6415969 502.248139,104.525755 C505.454102,120.711812 501.400585,135.228455 490.234987,146.914352 C477.484832,160.124497 464.255625,173.008018 451.247519,186.036705 C442.845682,194.492649 434.333296,202.984885 425.894609,211.513413 L420.809287,216.666821 L415.613415,211.368247 C397.814788,193.512776 379.942461,175.76618 362.180684,157.838126 C357.463864,153.156509 352.636493,148.692641 348.472425,143.539233 C327.320434,117.372984 340.844442,76.036843 372.75668,68.74223 C391.36601,64.4961119 409.533139,72.2262243 420.072284,88.8114888 C420.219685,89.2106965 420.477636,89.4284461 420.809287,89.9365286 C424.973355,83.0048316 430.206078,77.5973821 436.802256,73.6415969 Z" id="duplicate_12_original_original_Fill-1_57722099_62794921" opacity="0.133110612" transform="translate(420.793417, 142.090024) rotate(198.000000) translate(-420.793417, -142.090024) "></path>
                    <path d="M401.351976,76.4181658 C426.232956,61.5568743 457.992177,76.4181658 463.677253,105.829698 C466.73035,121.243968 462.870113,135.068425 452.236915,146.197114 C440.094716,158.77737 427.496307,171.046575 415.108456,183.454026 C407.107238,191.506772 399.000741,199.594079 390.964429,207.715948 L386.121587,212.62363 L381.173465,207.577704 C364.223516,190.573621 347.203381,173.673222 330.288526,156.600018 C325.796614,152.14163 321.199423,147.89061 317.233907,142.982927 C297.090489,118.064343 309.969643,78.6992012 340.360234,71.7524115 C358.082231,67.7087577 375.38311,75.0702812 385.419726,90.8647236 C385.560098,91.2448961 385.805749,91.452263 386.121587,91.936119 C390.087103,85.3349407 395.070318,80.1853304 401.351976,76.4181658 Z" id="duplicate_11_original_original_Fill-1_57722099_62794921" opacity="0.903679626" transform="translate(386.106473, 141.602820) rotate(180.000000) translate(-386.106473, -141.602820) "></path>
                    <path d="M366.650772,79.2413271 C390.484606,65.0054912 420.907202,79.2413271 426.353014,107.41504 C429.277617,122.180581 425.579843,135.423219 415.394157,146.083543 C403.762977,158.134343 391.694787,169.887184 379.828294,181.772452 C372.163817,189.486289 364.398492,197.233232 356.700399,205.013282 L352.061373,209.714418 L347.321499,204.880855 C331.08491,188.592411 314.781088,172.403286 298.578114,156.048628 C294.27525,151.777877 289.871538,147.705766 286.072915,143.004629 C266.777258,119.134774 279.114377,81.4263624 308.225943,74.7719368 C325.202087,70.8984652 341.774838,77.9501699 351.38905,93.0798838 C351.523515,93.4440564 351.758828,93.642696 352.061373,94.1061883 C355.859995,87.7828286 360.633485,82.849946 366.650772,79.2413271 Z" id="duplicate_10_original_original_Fill-1_57722099_62794921" opacity="0.247674164" transform="translate(352.046896, 141.682606) rotate(162.000000) translate(-352.046896, -141.682606) "></path>
                    <path d="M331.234661,82.0200213 C353.831774,68.5228731 382.675762,82.0200213 387.838995,108.731819 C390.611843,122.731187 387.105944,135.286674 377.448785,145.393841 C366.421139,156.819333 354.979159,167.962328 343.728411,179.230877 C336.461638,186.544448 329.09925,193.889408 321.800605,201.265757 L317.402296,205.722954 L312.90837,201.140202 C297.514286,185.696953 282.056459,170.34787 266.694246,154.841844 C262.614655,150.7927 258.439448,146.931888 254.837933,142.47469 C236.543514,119.843425 248.240468,84.0916766 275.841456,77.7825445 C291.93672,74.1100646 307.649522,80.7958613 316.764859,95.1405049 C316.892347,95.4857808 317.115449,95.6741131 317.402296,96.1135551 C321.00381,90.1183102 325.529607,85.4413914 331.234661,82.0200213 Z" id="duplicate_9_original_original_Fill-1_57722099_62794921" opacity="0.246902935" transform="translate(317.388569, 141.221266) rotate(144.000000) translate(-317.388569, -141.221266) "></path>
                    <path d="M295.483416,84.7778702 C316.754939,72.0724904 343.906884,84.7778702 348.767232,109.922703 C351.377419,123.100841 348.077182,134.919799 338.986531,144.43406 C328.605788,155.189312 317.835017,165.678637 307.244258,176.286152 C300.403768,183.170695 293.473272,190.084785 286.60278,197.028423 L282.462484,201.224153 L278.232181,196.910233 C263.741143,182.372915 249.190101,167.924239 234.729065,153.327826 C230.88879,149.516212 226.958509,145.881883 223.568266,141.686153 C206.347033,120.382481 217.357821,86.7279982 243.339682,80.7889719 C258.490767,77.3319267 273.281826,83.6255218 281.862441,97.1286812 C281.982449,97.4537025 282.192464,97.6309869 282.462484,98.0446504 C285.852726,92.401098 290.113031,87.9985362 295.483416,84.7778702 Z" id="duplicate_8_original_original_Fill-1_57722099_62794921" opacity="0.334234893" transform="translate(282.449562, 140.506256) rotate(126.000000) translate(-282.449562, -140.506256) "></path>
                    <path d="M260.045084,87.5551822 C280.073994,75.5920096 305.63981,87.5551822 310.216232,111.231135 C312.67394,123.639449 309.566493,134.767982 301.006888,143.726451 C291.232554,153.853416 281.090977,163.729988 271.118896,173.717846 C264.678005,180.200217 258.152366,186.710408 251.683226,193.248421 L247.784792,197.19905 L243.80161,193.137136 C230.157092,179.449041 216.456074,165.84441 202.839806,152.100672 C199.223867,148.51172 195.52318,145.089696 192.330984,141.139067 C176.115759,121.079887 186.483333,89.3913901 210.947418,83.7993024 C225.213426,80.5442066 239.140439,86.4701503 247.219802,99.1844988 C247.3328,99.4905335 247.530547,99.6574615 247.784792,100.04696 C250.976988,94.7330858 254.98842,90.5877073 260.045084,87.5551822 Z" id="duplicate_7_original_original_Fill-1_57722099_62794921" opacity="0.620361461" transform="translate(247.772626, 140.028097) rotate(108.000000) translate(-247.772626, -140.028097) "></path>
                    <path d="M225.331318,90.3775622 C244.309751,79.0418348 268.534689,90.3775622 272.871087,112.811757 C275.199893,124.569279 272.255425,135.114142 264.144755,143.602756 C254.883066,153.198581 245.273395,162.557147 235.82433,172.021161 C229.721252,178.163544 223.53787,184.332288 217.408024,190.527395 L213.714055,194.270821 L209.939783,190.421946 C197.010894,177.451765 184.028468,164.560671 171.126346,151.537765 C167.700057,148.137047 164.193463,144.894502 161.168692,141.151076 C145.803925,122.143961 155.62774,92.1174645 178.80873,86.818671 C192.326513,83.7342987 205.523082,89.3494381 213.178698,101.396944 C213.285769,101.686927 213.473144,101.8451 213.714055,102.21417 C216.738827,97.1789986 220.539867,93.2510372 225.331318,90.3775622 Z" id="duplicate_6_original_original_Fill-1_57722099_62794921" opacity="0.608134689" transform="translate(213.702527, 140.098374) rotate(90.000000) translate(-213.702527, -140.098374) "></path>
                    <path d="M190.792361,93.2108152 C208.76667,82.4748458 231.7099,93.2108152 235.816865,114.458048 C238.022457,125.593495 235.233777,135.580443 227.552232,143.619937 C218.780566,152.708059 209.679329,161.571476 200.730202,170.534762 C194.950029,176.352159 189.093802,182.194524 183.288277,188.061856 L179.789752,191.607223 L176.215171,187.961987 C163.970332,175.67804 151.674789,163.468996 139.455301,151.135115 C136.210291,147.914324 132.889227,144.843338 130.024492,141.297971 C115.472654,123.296497 124.776704,94.8586617 146.73122,89.8402202 C159.533795,86.9190378 172.032151,92.2370878 179.282719,103.647176 C179.384126,103.921817 179.561587,104.071621 179.789752,104.421165 C182.654486,99.6523968 186.254419,95.9322586 190.792361,93.2108152 Z" id="duplicate_5_original_original_Fill-1_57722099_62794921" opacity="0.225984779" transform="translate(179.778833, 140.300966) rotate(72.000000) translate(-179.778833, -140.300966) "></path>
                    <path d="M156.084998,96.0335934 C173.010528,85.9240553 194.615047,96.0335934 198.482375,116.041075 C200.559274,126.526782 197.93331,135.931003 190.699974,143.501402 C182.440124,152.059243 173.869934,160.40549 165.442978,168.845779 C160.000071,174.323738 154.485548,179.825208 149.018769,185.350188 L145.724378,188.688686 L142.35837,185.256146 C130.828003,173.688953 119.24989,162.192292 107.743395,150.578079 C104.687728,147.545217 101.560444,144.653419 98.8628633,141.31492 C85.1601076,124.363811 93.9212772,97.58529 114.594773,92.8596687 C126.650333,90.1089338 138.419425,95.1166818 145.24693,105.861005 C145.34242,106.119621 145.509527,106.260684 145.724378,106.589832 C148.421959,102.099316 151.811839,98.5962438 156.084998,96.0335934 Z" id="duplicate_4_original_original_Fill-1_57722099_62794921" opacity="0.960472692" transform="translate(145.714097, 140.376089) rotate(54.000000) translate(-145.714097, -140.376089) "></path>
                    <path d="M120.687327,98.8134345 C136.381025,89.4396634 156.413178,98.8134345 159.999044,117.364782 C161.924787,127.087344 159.489939,135.807131 152.783042,142.82656 C145.12434,150.761566 137.177884,158.500377 129.364237,166.326386 C124.317463,171.405662 119.204283,176.506737 114.135374,181.629612 L111.080747,184.725137 L107.959716,181.542414 C97.2685223,170.817076 86.533059,160.157137 75.8640007,149.3882 C73.0307238,146.576068 70.1310419,143.894734 67.6297897,140.799209 C54.9243135,125.081793 63.0478497,100.252199 82.2167387,95.8705064 C93.3949015,93.3199687 104.307445,97.9632553 110.638048,107.925612 C110.726588,108.165406 110.881532,108.296203 111.080747,108.601396 C113.581999,104.437697 116.725166,101.189577 120.687327,98.8134345 Z" id="duplicate_3_original_original_Fill-1_57722099_62794921" opacity="0.323718105" transform="translate(111.071214, 139.928706) rotate(36.000000) translate(-111.071214, -139.928706) "></path>
                    <path d="M84.9118663,101.569777 C99.2735531,92.99161 117.605466,101.569777 120.88698,118.546569 C122.649275,127.443924 120.421086,135.423614 114.28344,141.847265 C107.274775,149.108783 100.002778,156.190758 92.8523194,163.352531 C88.2338926,168.0007 83.554697,172.668819 78.916014,177.356887 L76.1206504,180.189678 L73.264518,177.277091 C63.4807455,167.462071 53.6564604,157.7069 43.8929441,147.851982 C41.3001431,145.278532 38.6465734,142.824777 36.3576162,139.991987 C24.7305242,125.608595 32.1645708,102.886426 49.7064901,98.8766317 C59.9359004,96.5425722 69.9222355,100.791757 75.7155252,109.908554 C75.7965503,110.127995 75.9383441,110.247691 76.1206504,110.52698 C78.4096075,106.716678 81.2859961,103.744243 84.9118663,101.569777 Z" id="duplicate_2_original_original_Fill-1_57722099_62794921" opacity="0.270101163" transform="translate(76.111927, 139.195368) rotate(18.000000) translate(-76.111927, -139.195368) "></path>
                    <path d="M48.6518195,105.83037 C61.5529958,98.124559 78.0206468,105.83037 80.9684473,121.080708 C82.5515254,129.073247 80.5499324,136.241444 75.0364537,142.011842 C68.7405341,148.534901 62.2080626,154.896675 55.7847689,161.330132 C51.6360127,165.505606 47.4326675,169.699001 43.2657149,173.910317 L40.7546256,176.455026 L38.1889474,173.838635 C29.4001348,165.021753 20.5749295,156.258633 11.8043132,147.40591 C9.47518689,145.094167 7.09147167,142.889946 5.03528983,140.345236 C-5.40938603,127.424562 1.26865585,107.013123 17.0266512,103.411104 C26.2157824,101.314406 35.186558,105.131471 40.3906996,113.321136 C40.4634848,113.518261 40.5908589,113.625784 40.7546256,113.876671 C42.8108074,110.453857 45.394682,107.783704 48.6518195,105.83037 Z" id="duplicate_1_original_original_Fill-1_57722099_62794921" opacity="0.120267951"></path>
                </g>
            </g>
        </g>
    </g>
</svg>