<?xml version="1.0" encoding="UTF-8"?>
<svg width="22px" height="22px" viewBox="0 0 22 22" version="1.1" xmlns="http://www.w3.org/2000/svg" xmlns:xlink="http://www.w3.org/1999/xlink">
    <!-- Generator: Sketch 51.3 (57544) - http://www.bohemiancoding.com/sketch -->
    <title>instagram</title>
    <desc>Created with Sketch.</desc>
    <defs></defs>
    <g id="Desktop" stroke="none" stroke-width="1" fill="none" fill-rule="evenodd">
        <g id="Product-Detail_Ingredient-Expanded" transform="translate(-47.000000, -190.000000)">
            <g id="Share" transform="translate(48.000000, 192.000000)">
                <g id="instagram" transform="translate(1.000000, 0.000000)">
                    <path d="M18.8328173,13.041029 C18.8328173,16.2465225 16.1690545,18.8328173 12.8975857,18.8328173 L4.93535689,18.8328173 C1.66387183,18.8328173 -1,16.2465074 -1,13.041029 L-1,4.79190991 C-1,1.5865001 1.66392761,-1 4.93535689,-1 L12.8975857,-1 C16.1689987,-1 18.8328173,1.586485 18.8328173,4.79190991 L18.8328173,13.041029 Z" id="Stroke-1" stroke="#898C8E" stroke-width="2"></path>
                    <path d="M13.3732397,8.91731635 C13.319424,11.3785592 11.377597,13.374613 8.91572201,13.374613 C6.45384701,13.374613 4.45820433,11.3790693 4.45820433,8.91731635 C4.45820433,6.45569093 6.45499474,4.38822653 8.91572201,4.46001969 C11.9132031,4.54749768 13.4268003,6.46436222 13.3732397,8.91731635 Z" id="Stroke-3" stroke="#898C8E" stroke-width="2"></path>
                    <path d="M15.6037152,3.34365325 C15.6037152,3.95924833 15.1046455,4.45820433 14.4890504,4.45820433 C13.873569,4.45820433 13.374613,3.95924833 13.374613,3.34365325 C13.374613,2.72805818 13.873569,2.22910217 14.4890504,2.22910217 C15.1046455,2.22910217 15.6037152,2.72805818 15.6037152,3.34365325" id="Fill-5" fill="#898C8E"></path>
                </g>
            </g>
        </g>
    </g>
</svg>