<?xml version="1.0" encoding="UTF-8"?>
<svg width="128px" height="128px" viewBox="0 0 128 128" version="1.1" xmlns="http://www.w3.org/2000/svg" xmlns:xlink="http://www.w3.org/1999/xlink">
    <!-- Generator: Sketch 51.3 (57544) - http://www.bohemiancoding.com/sketch -->
    <title>Non Toxic Icon</title>
    <desc>Created with Sketch.</desc>
    <defs></defs>
    <g id="Desktop" stroke="none" stroke-width="1" fill="none" fill-rule="evenodd">
        <g id="Ingredients" transform="translate(-956.000000, -2521.000000)" stroke="#EED6D3" stroke-width="2">
            <g id="Explanations" transform="translate(0.000000, 2400.000000)">
                <g id="Non-Toxic" transform="translate(815.000000, 121.000000)">
                    <g id="Non-Toxic-Icon" transform="translate(141.000000, 0.000000)">
                        <path d="M64,1 C29.2050847,1 1,29.2050847 1,64 C1,98.7907411 29.2073105,127 64,127 C98.7885153,127 127,98.7885153 127,64 C127,29.2073105 98.7907411,1 64,1 Z" id="Stroke-1"></path>
                        <path d="M64.3333333,12 C35.4296181,12 12,35.4296181 12,64.3333333 C12,93.2335727 35.4314754,116.666667 64.3333333,116.666667 C93.2317153,116.666667 116.666667,93.2317153 116.666667,64.3333333 C116.666667,35.4314754 93.2335727,12 64.3333333,12 Z" id="Stroke-1"></path>
                        <g id="X" transform="translate(43.000000, 43.000000)">
                            <path d="M42,0 L0,42" id="Stroke-1"></path>
                            <path d="M0,0 L42,42" id="Stroke-3"></path>
                        </g>
                    </g>
                </g>
            </g>
        </g>
    </g>
</svg>