<?xml version="1.0" encoding="UTF-8"?>
<svg width="21px" height="17px" viewBox="0 0 21 17" version="1.1" xmlns="http://www.w3.org/2000/svg" xmlns:xlink="http://www.w3.org/1999/xlink">
    <!-- Generator: Sketch 51.3 (57544) - http://www.bohemiancoding.com/sketch -->
    <title>twitter</title>
    <desc>Created with Sketch.</desc>
    <defs></defs>
    <g id="Desktop" stroke="none" stroke-width="1" fill="none" fill-rule="evenodd">
        <g id="Product-Detail_Ingredient-Expanded" transform="translate(-48.000000, -337.000000)" fill="#898C8E">
            <g id="Share" transform="translate(48.000000, 192.000000)">
                <path d="M20.2714932,146.949756 C19.5256322,147.280461 18.7241597,147.504044 17.8827952,147.604494 C18.7415104,147.089941 19.4009883,146.275003 19.7114486,145.304091 C18.9079,145.780614 18.0178198,146.12659 17.070497,146.313107 C16.3118824,145.50499 15.2309437,145 14.0348522,145 C11.737876,145 9.87578152,146.861761 9.87578152,149.157938 C9.87578152,149.483898 9.91255924,149.801185 9.98344533,150.105498 C6.52700707,149.932103 3.46251845,148.276726 1.41127082,145.761117 C1.0532071,146.37523 0.848186147,147.089496 0.848186147,147.851503 C0.848186147,149.294045 1.58240585,150.56675 2.6983427,151.312448 C2.01662022,151.290875 1.37530874,151.103765 0.814596819,150.792335 C0.814300225,150.809682 0.814226076,150.827103 0.814226076,150.844598 C0.814226076,152.85922 2.24781564,154.539802 4.15039526,154.921806 C3.80137767,155.01677 3.43397123,155.067551 3.054701,155.067551 C2.78665371,155.067551 2.52616958,155.04153 2.27221053,154.993047 C2.80148344,156.64494 4.33732395,157.847145 6.15722786,157.880727 C4.73387081,158.9959 2.94066041,159.660572 0.992108633,159.660572 C0.656437797,159.660572 0.325364177,159.640926 0,159.602526 C1.84059138,160.782269 4.0266412,161.470588 6.37529897,161.470588 C14.0251387,161.470588 18.2083077,155.134789 18.2083077,149.640095 C18.2083077,149.459805 18.2042295,149.280479 18.1962956,149.10219 C19.0088162,148.515951 19.7138955,147.783597 20.2714932,146.949756" id="twitter"></path>
            </g>
        </g>
    </g>
</svg>