<?xml version="1.0" encoding="UTF-8"?>
<svg width="22px" height="26px" viewBox="0 0 22 26" version="1.1" xmlns="http://www.w3.org/2000/svg" xmlns:xlink="http://www.w3.org/1999/xlink">
    <!-- Generator: Sketch 51.3 (57544) - http://www.bohemiancoding.com/sketch -->
    <title>Bag</title>
    <desc>Created with Sketch.</desc>
    <defs></defs>
    <g id="Symbols" stroke="none" stroke-width="1" fill="none" fill-rule="evenodd">
        <g id="Main-Nav_Transparent" transform="translate(-1539.000000, -22.000000)" stroke="#FFFFFF">
            <g id="Bag">
                <g transform="translate(1540.000000, 23.000000)">
                    <path d="M18.9450725,24 L1.05492751,24 C0.502642763,24 0.0549275126,23.5522847 0.0549275126,23 C0.0549275126,22.9821834 0.055403659,22.96437 0.0563554418,22.9465788 L0.912316107,6.94657885 C0.940710849,6.41581162 1.37936197,6 1.91088818,6 L18.0891118,6 C18.620638,6 19.0592892,6.41581162 19.0876839,6.94657885 L19.9436446,22.9465788 C19.9731482,23.498075 19.5499898,23.9690684 18.9984936,23.9985721 C18.9807025,23.9995239 18.9628891,24 18.9450725,24 Z"></path>
                    <path d="M6,8 L6,4.4345485 C6,1.98540639 7.79085324,0 10,0 C12.2091468,0 14,1.98540639 14,4.4345485 L14,8" id="Handle" stroke-linecap="round"></path>
                </g>
            </g>
        </g>
    </g>
</svg>