<?xml version="1.0" encoding="UTF-8"?>
<svg width="128px" height="128px" viewBox="0 0 128 128" version="1.1" xmlns="http://www.w3.org/2000/svg" xmlns:xlink="http://www.w3.org/1999/xlink">
    <!-- Generator: Sketch 51.3 (57544) - http://www.bohemiancoding.com/sketch -->
    <title>Fragrance Icon</title>
    <desc>Created with Sketch.</desc>
    <defs></defs>
    <g id="Desktop" stroke="none" stroke-width="1" fill="none" fill-rule="evenodd">
        <g id="Ingredients" transform="translate(-356.000000, -2984.000000)" stroke="#EED6D3" stroke-width="2">
            <g id="Explanations" transform="translate(0.000000, 2400.000000)">
                <g id="F-Words" transform="translate(276.000000, 584.000000)">
                    <g id="Fragrance-Icon" transform="translate(80.000000, 0.000000)">
                        <path d="M64,1 C29.2050847,1 1,29.2050847 1,64 C1,98.7907411 29.2073105,127 64,127 C98.7885153,127 127,98.7885153 127,64 C127,29.2073105 98.7907411,1 64,1 Z" id="Stroke-1"></path>
                        <path d="M64,9 C33.6234847,9 9,33.6234847 9,64 C9,94.3728648 33.6254342,119 64,119 C94.3709153,119 119,94.3709153 119,64 C119,33.6254342 94.3728648,9 64,9 Z" id="Stroke-1"></path>
                        <g id="Fragrance" transform="translate(24.000000, 25.000000)">
                            <path d="M51.4809036,12.7829787 C51.4809036,15.7921702 50.2587142,18.6744681 48.2881225,20.7893617 L32.945874,20.7893617 C30.9752822,18.6744681 29.7530929,15.7921702 29.7530929,12.7829787 C29.7530929,6.77668085 34.6177083,1.90638298 40.6169982,1.90638298 C46.6162882,1.90638298 51.4809036,6.77668085 51.4809036,12.7829787 Z" id="Stroke-1"></path>
                            <polygon id="Stroke-3" points="35.8565858 26.5085106 45.2116154 26.5085106 45.2116154 20.7893617 35.8565858 20.7893617"></polygon>
                            <path d="M45.294513,26.5085106 L35.9394834,26.5085106 C24.5927379,28.9255319 15.9052349,38.5150638 15.9052349,50.5125532 C15.9052349,59.5945106 20.7680396,67.3259574 28.0106432,71.6101277 L28.0106432,73.9425532 L32.2367024,73.9425532 L49.0063473,73.9425532 L52.4544302,73.9425532 L52.4544302,71.788383 C59.9988089,67.5555745 65.094584,59.7365106 65.094584,50.5306809 C65.094584,38.5331915 56.6412586,28.9255319 45.294513,26.5085106 Z" id="Stroke-5"></path>
                            <path d="M46.5016136,33.0042553 C52.4858148,36.267234 56.9581225,41.8354468 58.6571166,48.5638298" id="Stroke-6"></path>
                            <path d="M78.5,0.5 L0.834048644,78.1659514" id="Line-2" stroke-linecap="square"></path>
                        </g>
                    </g>
                </g>
            </g>
        </g>
    </g>
</svg>