<?xml version="1.0" encoding="UTF-8"?>
<svg width="12px" height="10px" viewBox="0 0 12 10" version="1.1" xmlns="http://www.w3.org/2000/svg" xmlns:xlink="http://www.w3.org/1999/xlink">
    <!-- Generator: Sketch 51.3 (57544) - http://www.bohemiancoding.com/sketch -->
    <title>Heart</title>
    <desc>Created with Sketch.</desc>
    <defs></defs>
    <g id="Symbols" stroke="none" stroke-width="1" fill="none" fill-rule="evenodd">
        <g id="Product" transform="translate(-147.000000, -382.000000)" fill="#DE4579">
            <g id="Rating" transform="translate(147.000000, 380.000000)">
                <path d="M6.63335426,2.41087642 C8.39234444,1.36461325 10.6375999,2.41087642 11.039513,4.48150422 C11.2553553,5.56669811 10.9824513,6.53996617 10.2307249,7.32344696 C9.37231781,8.2091209 8.48165847,9.0728963 7.6058848,9.94640439 C7.04022928,10.513333 6.46713093,11.0826949 5.89899447,11.6544898 L5.55662403,12 L5.20681075,11.6447572 C4.00851419,10.4476374 2.80525575,9.25781723 1.60944014,8.05583118 C1.29187915,7.74195223 0.966875324,7.4426723 0.686528512,7.09716214 C-0.737534058,5.34284646 0.172972846,2.57146565 2.32147143,2.08239845 C3.57434878,1.79771754 4.79745478,2.31598278 5.50700512,3.42794154 C5.5169289,3.45470641 5.53429552,3.46930544 5.55662403,3.50336982 C5.83697084,3.03863432 6.18926506,2.67609196 6.63335426,2.41087642 Z" id="Heart"></path>
            </g>
        </g>
    </g>
</svg>