<?xml version="1.0" encoding="UTF-8"?>
<svg width="11px" height="9px" viewBox="0 0 11 9" version="1.1" xmlns="http://www.w3.org/2000/svg" xmlns:xlink="http://www.w3.org/1999/xlink">
    <!-- Generator: Sketch 51.3 (57544) - http://www.bohemiancoding.com/sketch -->
    <title>Heart</title>
    <desc>Created with Sketch.</desc>
    <defs></defs>
    <g id="Desktop" stroke="none" stroke-width="1" fill="none" fill-rule="evenodd">
        <g id="Lips" transform="translate(-974.000000, -478.000000)" stroke="#DE4579">
            <g id="Marquee" transform="translate(0.000000, 176.000000)">
                <path d="M980.284594,303.132934 C981.685929,302.295923 983.474656,303.132934 983.794849,304.789436 C983.966804,305.657591 983.749389,306.436206 983.150511,307.06299 C982.466644,307.77153 981.757083,308.46255 981.05938,309.161356 C980.608739,309.614899 980.152169,310.070389 979.699552,310.527825 L979.426796,310.804233 L979.14811,310.520039 C978.193463,309.562343 977.234863,308.610487 976.282193,307.648898 C976.029201,307.397795 975.770281,307.158371 975.546937,306.881963 C974.412429,305.47851 975.137802,303.261405 976.849447,302.870152 C977.847576,302.642407 978.821988,303.057019 979.387266,303.946586 C979.395172,303.967998 979.409007,303.979677 979.426796,304.006929 C979.650139,303.63514 979.930802,303.345106 980.284594,303.132934 Z" id="Heart"></path>
            </g>
        </g>
    </g>
</svg>