<?xml version="1.0" encoding="UTF-8"?>
<svg width="389px" height="42px" viewBox="0 0 389 42" version="1.1" xmlns="http://www.w3.org/2000/svg" xmlns:xlink="http://www.w3.org/1999/xlink">
    <!-- Generator: Sketch 51.3 (57544) - http://www.bohemiancoding.com/sketch -->
    <title>Inner Beauty_Logo</title>
    <desc>Created with Sketch.</desc>
    <defs></defs>
    <g id="Symbols" stroke="none" stroke-width="1" fill="none" fill-rule="evenodd">
        <g id="Main-Nav_Transparent" transform="translate(-605.000000, -64.000000)">
            <g id="Inner-Beauty_Logo">
                <g transform="translate(605.000000, 64.000000)">
                    <g id="Inner-Beauty" transform="translate(0.000000, 2.000000)" fill="#FFFFFF">
                        <path d="M0.395565232,3.42908879 C0.921280518,2.90967759 1.7112743,2.90967759 2.23414788,3.42908879 C2.49842638,3.6887944 2.63198648,4.02471795 2.63198648,4.4255679 C2.63198648,4.86311538 2.48137615,5.22162203 2.20004743,5.46439031 C1.92440212,5.71845014 1.62318147,5.84548006 1.3134357,5.84548006 C0.978114603,5.84548006 0.659843727,5.71280437 0.395565232,5.45309877 C0.134128441,5.19057028 0.00056834085,4.84617806 0.00056834085,4.4255679 C0.00056834085,4.02471795 0.134128441,3.69161728 0.395565232,3.43191168 L0.395565232,3.42908879 Z M0.466039497,30.2010667 L0.466039497,11.660345 L2.17106205,11.660345 L2.17106205,30.2010667 L0.466039497,30.2010667 Z" id="Fill"></path>
                        <path d="M35.5505727,13.6897184 L35.5505727,13.6868955 C35.0248574,12.9275389 34.3115896,12.300858 33.4221362,11.8237901 C32.5440496,11.3580138 31.4329432,11.1237142 30.1229176,11.1237142 C29.2988233,11.1237142 28.5003044,11.2450983 27.7472528,11.4878666 C26.9998846,11.7193433 26.2837751,12.0834957 25.6131329,12.5662094 C24.9538575,13.0432773 24.3599413,13.624792 23.8569597,14.2881705 C23.6892991,14.5083557 23.5301637,14.7454782 23.3852368,14.9938922 L23.3625031,14.2797018 C23.3511363,13.8280399 23.3369278,13.4102526 23.3198776,13.02634 C23.3141942,12.6367816 23.2886188,12.3036809 23.2630435,12.0411524 L23.2317848,11.6572398 L21.5210788,11.6572398 L21.586438,12.3629615 C21.6063299,12.5690323 21.6262219,12.8061548 21.6461138,13.0630375 C21.6688474,13.449773 21.6887393,13.8449772 21.6972645,14.2655874 L21.7427317,15.5217721 C21.7512568,15.9254449 21.759782,16.2641914 21.759782,16.5436572 L21.759782,30.2007844 L23.4619628,30.2007844 L23.4619628,20.9304236 C23.4619628,19.6149582 23.6438319,18.4378143 24.0018866,17.4328666 C24.3485745,16.4307417 24.8288225,15.5584696 25.4284221,14.849925 C26.0166549,14.1554948 26.7213976,13.6191462 27.5284416,13.2549938 C28.341169,12.8851956 29.2164139,12.6932393 30.1229176,12.6932393 C31.1459311,12.6932393 31.9956007,12.902133 32.6463509,13.3029829 C33.308468,13.7151244 33.8455501,14.2317127 34.240547,14.8414563 C34.6355439,15.4681372 34.9083475,16.1682132 35.0504327,16.9247469 C35.2010431,17.7123324 35.2749274,18.4632203 35.2749274,19.1604734 L35.2749274,30.2007844 L36.9771082,30.2007844 L36.9771082,19.0786097 C36.9771082,18.1160052 36.8662817,17.1646923 36.6531539,16.2613685 C36.4457095,15.3354615 36.076288,14.4688352 35.5505727,13.6897184" id="Fill-12"></path>
                        <path d="M68.5922047,13.6897184 L68.5922047,13.6868955 C68.0664894,12.924716 67.3503799,12.300858 66.4609265,11.8237901 C65.5856816,11.3580138 64.4745752,11.1237142 63.1617078,11.1237142 C62.3376136,11.1237142 61.5419364,11.2450983 60.7917265,11.4878666 C60.0443583,11.7193433 59.3254071,12.0806728 58.6490815,12.5690323 C57.9926478,13.0489231 57.4015733,13.6304378 56.8985917,14.2881705 C56.7252477,14.5140014 56.568954,14.7511239 56.4211854,14.9967151 L56.3984517,14.2825247 C56.39561,14.0030589 56.3870849,13.7405304 56.3814015,13.4864706 L56.3700347,13.0206942 C56.3529845,12.6311358 56.3302508,12.300858 56.3018338,12.0326838 L56.2563665,11.6572398 L54.5598691,11.6572398 L54.6081781,12.1201933 C54.6365951,12.3742531 54.6593287,12.6904164 54.6792207,13.0686833 C54.7104794,13.4582417 54.7303713,13.850623 54.7445799,14.2627645 L54.7872054,15.8209981 C54.7928888,16.097641 54.7985722,16.3347635 54.7985722,16.5436572 L54.7985722,30.2007844 L56.5035948,30.2007844 L56.5035948,20.9304236 C56.5035948,19.620604 56.6826222,18.4434601 57.0349935,17.4356895 C57.4015733,16.4166273 57.8818214,15.5443552 58.4700541,14.849925 C59.0696537,14.149849 59.7772381,13.6135005 60.5700736,13.2549938 C61.3799593,12.8851956 62.2523625,12.6932393 63.1617078,12.6932393 C64.1818797,12.6932393 65.0343909,12.902133 65.6908246,13.3029829 C66.3472583,13.7151244 66.8814987,14.2317127 67.2793373,14.8386334 C67.6686508,15.4568457 67.9414544,16.1597445 68.0920647,16.9247469 C68.2398333,17.7010408 68.3137177,18.4519288 68.3137177,19.1604734 L68.3137177,30.2007844 L70.0187402,30.2007844 L70.0187402,19.0786097 C70.0187402,18.147057 69.9079137,17.198567 69.6947859,16.2613685 C69.4844998,15.3213471 69.1150783,14.4547208 68.5922047,13.6897184" id="Fill-13"></path>
                        <path d="M88.1954173,19.5808013 C88.2408845,19.0557443 88.3716029,18.462938 88.5847307,17.8080283 C88.8490092,16.9780995 89.2752649,16.165108 89.8521308,15.3944599 C90.4233134,14.6322804 91.1678399,13.9858393 92.0715019,13.4664281 C92.9495885,12.9554855 94.0379612,12.6957799 95.3025196,12.6957799 C96.3596336,12.6957799 97.3201296,12.8707989 98.1612741,13.2208369 C99.0194688,13.5736978 99.7526284,14.0733488 100.340861,14.6972068 C100.943303,15.3295335 101.432076,16.1086503 101.784447,17.0035055 C102.094193,17.788268 102.278904,18.6548943 102.338579,19.5808013 L88.1954173,19.5808013 Z M101.915165,13.91809 L101.915165,13.9152671 C101.204739,13.093807 100.292552,12.4106683 99.1984961,11.8856113 C98.10444,11.3803146 96.8143063,11.1234319 95.3593537,11.1234319 C94.1090038,11.1234319 92.9296965,11.3605544 91.8555323,11.8291536 C90.7586345,12.3090444 89.8038219,12.9837144 89.0166698,13.8362263 C88.2153092,14.6972068 87.5787674,15.7247377 87.1269365,16.8934129 C86.6694221,18.064911 86.439244,19.3577932 86.439244,20.7381849 C86.439244,22.1665658 86.660897,23.51026 87.0985194,24.73257 C87.544667,25.9492343 88.1840504,27.0191085 89.005303,27.9111408 C89.840764,28.8003502 90.8325188,29.5004262 91.9578337,29.9916085 C93.1001988,30.4884366 94.3704406,30.7396736 95.7344586,30.7396736 C97.3286547,30.7396736 98.7665571,30.4263331 100.002698,29.8081208 C101.227473,29.1983773 102.315846,28.2922305 103.236558,27.1037951 L103.469578,26.7904547 L102.205019,25.6923516 L101.935057,26.0649727 C101.184847,27.0529831 100.281185,27.8208084 99.2524885,28.3430425 C98.2436835,28.8624537 97.0615345,29.1249822 95.7344586,29.1249822 C94.4329581,29.1249822 93.2962764,28.8822139 92.358514,28.405146 C91.4150682,27.9224323 90.6222327,27.2844599 90.0027412,26.5025202 C89.3690411,25.6979974 88.9001599,24.7918507 88.6046227,23.809486 C88.3346608,22.9400368 88.1812087,22.0508274 88.1442666,21.1587951 L104.05781,21.1587951 L104.05781,20.0042343 C104.05781,18.9089542 103.878783,17.8221427 103.529253,16.7804974 C103.182565,15.7275605 102.6398,14.7621332 101.915165,13.91809 Z" id="Fill-14"></path>
                        <path d="M130.311748,11.164646 C130.141245,11.1251256 129.99916,11.1223027 129.88265,11.1223027 L129.538804,11.1223027 C128.140686,11.1223027 126.819293,11.5570273 125.611569,12.4095392 C124.832942,12.9656479 124.185033,13.7504105 123.67921,14.7553583 C123.673526,14.6000995 123.670685,14.4391949 123.667843,14.2811132 C123.653635,13.8266284 123.639426,13.4116641 123.622376,13.0192828 C123.608167,12.6353701 123.591117,12.2994466 123.565542,12.0482096 L123.542808,11.6586512 L121.823577,11.6586512 L121.871886,12.1159589 C121.897461,12.3728416 121.920195,12.6861821 121.942929,13.0700947 C121.971346,13.4568302 121.988396,13.8492115 122.005446,14.2641759 L122.050913,15.8054722 C122.056597,16.084938 122.06228,16.3333521 122.06228,16.5422457 L122.06228,30.199373 L123.764461,30.199373 L123.764461,20.6241403 C123.764461,19.6925876 123.883813,18.7356289 124.122516,17.7786702 C124.349852,16.8414717 124.716432,15.9776683 125.205205,15.212666 C125.693978,14.4533094 126.31347,13.83792 127.052313,13.3806123 C127.779789,12.9261275 128.680609,12.6946508 129.726357,12.6946508 L129.942326,12.6946508 C130.01621,12.6946508 130.067361,12.7031194 130.135562,12.7228796 L130.658436,12.838618 L130.658436,11.215458 L130.311748,11.164646 Z" id="Fill-15"></path>
                        <path d="M227.471037,24.1129463 C227.112982,25.1094255 226.598634,25.9845204 225.947883,26.7212939 C225.282924,27.4637132 224.478722,28.0536966 223.552327,28.4827754 C222.628773,28.9146771 221.565975,29.1348623 220.395193,29.1348623 C219.27272,29.1348623 218.235498,28.9146771 217.306261,28.4827754 C216.379865,28.0536966 215.561454,27.4608903 214.87092,26.7128253 C214.188911,25.9760518 213.643304,25.0981339 213.251149,24.0931861 C212.861835,23.1108215 212.665758,22.0353015 212.665758,20.8976781 C212.665758,19.7685233 212.861835,18.6930033 213.251149,17.70217 C213.646146,16.702868 214.191753,15.8193044 214.87092,15.0853538 C215.564296,14.3401116 216.382707,13.7444824 217.309102,13.3210494 C218.235498,12.8863248 219.27272,12.6661396 220.395193,12.6661396 C221.565975,12.6661396 222.625931,12.8919706 223.549485,13.3351638 C224.495772,13.7924715 225.302816,14.4022151 225.945042,15.1389886 C226.601475,15.8898765 227.115824,16.7734402 227.471037,17.7727422 C227.82625,18.774867 228.002435,19.8390954 228.002435,20.9371985 C228.002435,22.0353015 227.82625,23.1051757 227.471037,24.1129463 M227.135716,13.8969183 C226.311621,13.0246462 225.317025,12.3358618 224.177502,11.8390337 C223.020928,11.3422056 221.747844,11.0909687 220.395193,11.0909687 C218.630495,11.0909687 216.973781,11.5652137 215.473361,12.505235 C214.365097,13.1996652 213.438701,14.153801 212.705541,15.3507051 L212.705541,0.239791073 L210.957893,0.239791073 L210.957893,30.1680389 L212.705541,30.1680389 L212.705541,26.5603894 C212.921511,26.9104274 213.163056,27.2407051 213.427334,27.5512227 C214.024092,28.2315385 214.691893,28.8130532 215.410844,29.2788295 C216.146845,29.7530745 216.945364,30.1144041 217.780825,30.3515266 C218.641862,30.591472 219.519948,30.7128561 220.395193,30.7128561 C221.727952,30.7128561 222.983986,30.4616192 224.140559,29.9619682 C225.280083,29.4651401 226.274679,28.7763557 227.098774,27.9069065 C227.925709,27.0261657 228.573618,25.9788746 229.019766,24.7989079 C229.474438,23.6245869 229.704616,22.3260589 229.704616,20.9371985 C229.704616,19.5426923 229.482963,18.227227 229.042499,17.0218542 C228.596352,15.8193044 227.954126,14.7663675 227.135716,13.8969183" id="Fill-16"></path>
                        <path d="M248.121986,19.5587828 C248.167453,19.0421944 248.29533,18.455034 248.508457,17.7747182 C248.775578,16.9419665 249.204675,16.1289751 249.778699,15.3611498 C250.352724,14.6017932 251.09725,13.9553521 251.99807,13.4359409 C252.890365,12.9249983 253.978738,12.6681156 255.229088,12.6681156 C256.286202,12.6681156 257.246698,12.8431346 258.090684,13.1903497 C258.928987,13.5403877 259.664988,14.0372158 260.26743,14.6638967 C260.872713,15.307515 261.358644,16.0866318 261.711015,16.9786641 C262.017919,17.7493122 262.20263,18.6187614 262.265148,19.5587828 L248.121986,19.5587828 Z M261.847417,13.8932486 L261.844576,13.8932486 C261.128466,13.0633198 260.210596,12.3801811 259.119381,11.8579471 C258.025325,11.3498274 256.738033,11.0901218 255.291606,11.0901218 C254.063989,11.0901218 252.884682,11.3272443 251.779259,11.7958435 C250.685203,12.2813801 249.727549,12.9560501 248.940397,13.808562 C248.144719,14.6610738 247.508178,15.6886047 247.050663,16.8601028 C246.595991,18.028778 246.365812,19.3244831 246.365812,20.7105207 C246.365812,22.1417244 246.587465,23.4854186 247.025088,24.69926 C247.468394,25.9187472 248.107777,26.9886213 248.934713,27.8834765 C249.761649,28.769863 250.750562,29.4671161 251.88156,29.9639442 C253.023926,30.4607723 254.294167,30.7120093 255.658185,30.7120093 C257.263748,30.7120093 258.701651,30.4014917 259.932109,29.7832794 C261.159725,29.1678901 262.248098,28.2589205 263.163126,27.0761308 L263.396146,26.7627904 L262.131588,25.673156 L261.864467,26.0373084 C261.111416,27.0253189 260.207754,27.7931441 259.181899,28.321024 C258.161727,28.8376123 256.976736,29.1029637 255.658185,29.1029637 C254.359527,29.1029637 253.225687,28.8573725 252.290766,28.3774817 C251.335953,27.8891223 250.543118,27.2511498 249.932151,26.4748559 C249.298451,25.6759789 248.82957,24.7698321 248.531191,23.7761759 C248.266913,22.9208412 248.113461,22.0344547 248.073677,21.1311308 L263.984379,21.1311308 L263.984379,19.97657 C263.984379,18.878467 263.805351,17.7888326 263.455822,16.7471873 C263.103451,15.6857818 262.563527,14.7260002 261.847417,13.8932486 Z" id="Fill-17"></path>
                        <path d="M293.310198,21.7806771 C293.310198,22.5993143 293.210739,23.4461804 293.006136,24.3664416 C292.8129,25.2217764 292.46337,26.0121847 291.966072,26.7207293 C291.474457,27.4264511 290.809499,28.0136116 289.996771,28.4652735 C289.195411,28.9084668 288.16103,29.1342977 286.916364,29.1342977 C286.416224,29.1342977 285.867775,29.0609027 285.288067,28.9169354 C284.72541,28.7757911 284.213903,28.5471372 283.756389,28.2450883 C283.304558,27.9486852 282.935136,27.5478352 282.650966,27.0594758 C282.369637,26.5767621 282.221868,25.9387896 282.221868,25.204839 C282.221868,24.1914226 282.480463,23.3784311 282.989129,22.7912707 C283.526211,22.1787042 284.222428,21.7016363 285.057889,21.3685356 C285.913242,21.0269663 286.87658,20.7954896 287.922327,20.6825741 C288.933974,20.5724815 289.962671,20.5188466 290.980001,20.5188466 L293.310198,20.5188466 L293.310198,21.7806771 Z M295.103314,27.8470613 C295.035113,27.1102877 295.003854,26.404566 295.003854,25.7440104 L295.003854,17.9754255 C295.003854,15.6267835 294.361629,13.8709478 293.099912,12.7530845 C291.846721,11.6493357 290.130331,11.0904041 287.99337,11.0904041 C286.970356,11.0904041 285.887667,11.2851833 284.770877,11.6747417 C283.679663,12.0699459 282.69075,12.6429919 281.821188,13.391057 L281.545543,13.6479397 L282.494672,14.9859881 L282.85841,14.6726477 C283.540419,14.0685499 284.330413,13.5745446 285.199974,13.2132151 C286.049644,12.8518856 286.990248,12.665575 287.99337,12.665575 C289.584724,12.665575 290.886225,13.0946538 291.863771,13.9330513 C292.821425,14.7573343 293.310198,16.1038514 293.310198,17.9443737 L293.310198,18.9464986 L290.630471,18.9464986 C289.621666,18.9464986 288.570236,19.011425 287.498913,19.135632 C286.345181,19.2683077 285.239758,19.5590651 284.222428,19.9937896 C283.188048,20.4426287 282.312803,21.083424 281.610902,21.8964155 C280.889109,22.7432816 280.522529,23.8554991 280.522529,25.204839 C280.522529,26.1505062 280.715765,26.9860807 281.099395,27.6833338 C281.477342,28.3805869 281.983165,28.9592787 282.596973,29.402472 C283.210781,29.8400195 283.898474,30.1731201 284.643,30.3820138 C285.381843,30.602199 286.146262,30.7122915 286.916364,30.7122915 C288.42815,30.7122915 289.874578,30.2973272 291.207337,29.475867 C292.110999,28.9112896 292.847001,28.1378186 293.398291,27.1667455 C293.409658,27.3445874 293.423867,27.5196064 293.438075,27.7002711 C293.480701,28.0616007 293.506276,28.4172844 293.531851,28.7588538 L293.537535,28.8350717 C293.571635,29.2895565 293.605736,29.5887825 293.66257,29.851311 L293.744979,30.1674744 L295.410218,30.1674744 L295.305075,29.6904065 C295.239716,29.2500361 295.174356,28.6628756 295.103314,27.8470613 Z" id="Fill-18"></path>
                        <path d="M329.469748,28.7636527 C329.447015,28.3825629 329.429964,27.9845358 329.418598,27.5582799 L329.375972,26.3162096 C329.364605,25.9097139 329.358922,25.5653217 329.358922,25.2886788 L329.358922,11.6371973 L327.653899,11.6371973 L327.653899,20.8990895 C327.653899,22.211732 327.474872,23.3888758 327.119659,24.3994694 C326.767288,25.4044171 326.287039,26.2682206 325.690282,26.9739423 C325.107732,27.6599038 324.400148,28.204721 323.590262,28.5829879 C322.78606,28.9471403 321.913657,29.1362737 320.995786,29.1362737 C319.950039,29.1362737 319.097528,28.9330259 318.455303,28.5349988 C317.801711,28.1172115 317.270312,27.5949774 316.878157,26.982411 C316.477476,26.3529072 316.201831,25.658477 316.062588,24.9217035 C315.914819,24.1397638 315.843776,23.4058132 315.843776,22.6690396 L315.843776,11.6371973 L314.138754,11.6371973 L314.138754,22.7509034 C314.138754,23.7050392 314.24958,24.6563521 314.462708,25.5737904 C314.672994,26.5025202 315.045257,27.3691465 315.568131,28.1397946 C316.096688,28.9132657 316.812798,29.5371237 317.696568,30.0000772 C318.588863,30.4743222 319.699969,30.7114447 320.995786,30.7114447 C321.799988,30.7114447 322.598507,30.5900605 323.368609,30.3472923 C324.115977,30.1073469 324.832087,29.7516631 325.502729,29.2887096 C326.164846,28.8172875 326.750237,28.2329499 327.241852,27.5526341 C327.418038,27.3098659 327.585698,27.0586289 327.736309,26.7989233 L327.753359,27.5413426 C327.759042,27.8208084 327.767567,28.0833369 327.776093,28.3317509 L327.793143,28.8031731 C327.80451,29.2012001 327.827243,29.5399466 327.858502,29.8024751 L327.906811,30.1666275 L329.5891,30.1666275 L329.552158,29.7121427 C329.526582,29.45526 329.498165,29.1419195 329.469748,28.7636527" id="Fill-19"></path>
                        <path d="M356.316181,28.7469976 C355.78194,28.9530684 355.168132,29.0575152 354.494648,29.0575152 C353.627929,29.0575152 352.928869,28.8260385 352.414521,28.3715537 C351.917223,27.9396519 351.664311,27.1718267 351.664311,26.0991296 L351.664311,13.201359 L356.893047,13.201359 L356.893047,11.6346567 L351.664311,11.6346567 L351.664311,6.43772175 L349.967814,6.43772175 L349.967814,11.6346567 L346.131513,11.6346567 L346.131513,13.201359 L350.004756,13.201359 L350.004756,26.0991296 C350.004756,27.3694288 350.334393,28.4449487 350.985144,29.2946377 C351.664311,30.18667 352.783942,30.635509 354.301412,30.635509 C354.693568,30.635509 355.122665,30.5931657 355.580179,30.511302 C355.992227,30.435084 356.384382,30.3249915 356.759487,30.1782013 L357.060707,30.0427028 L356.802112,28.5465726 L356.316181,28.7469976 Z" id="Fill-20"></path>
                        <path d="M386.875584,11.6360681 L380.854013,28.0793849 L374.715932,11.9211797 L374.622155,11.6360681 L372.775048,11.6360681 L379.984451,30.2530078 L378.333421,34.7188151 C378.194178,35.0829675 378.026517,35.5092234 377.824756,35.918542 C377.64857,36.293986 377.429759,36.6299095 377.176848,36.9121982 C376.918252,37.2057785 376.61419,37.4400781 376.273186,37.6122742 C375.764521,37.8719798 375.09672,37.942552 374.34651,37.8070534 C374.090757,37.7562415 373.888996,37.6997837 373.752594,37.6602633 L373.340547,37.5304105 L372.86314,39.0519466 L373.241087,39.1874452 C373.474107,39.2693089 373.758277,39.3398811 374.090757,39.3991617 C374.42892,39.4556194 374.721615,39.4838483 374.977368,39.4838483 C376.156676,39.4838483 377.139905,39.1451019 377.912849,38.4760776 C378.651692,37.8155221 379.242767,36.8980838 379.671864,35.7463459 L388.498197,12.2034684 L388.722692,11.6360681 L386.875584,11.6360681 Z" id="Fill-21"></path>
                    </g>
                    <g id="Heart" transform="translate(151.000000, 0.000000)">
                        <path d="M20.6198334,17.333653 C20.9329182,16.8079609 21.3263521,16.397866 21.8223005,16.0978637 C23.7866996,14.9143683 26.2941484,16.0978637 26.7429956,18.4400836 C26.9840432,19.667616 26.6792704,20.7685419 25.8397599,21.6547873 C24.881111,22.6566299 23.8864435,23.6337016 22.9083999,24.6217826 C22.2766891,25.263072 21.6366662,25.9071137 21.0021847,26.5539076 L20.6198334,26.9447363 L20.2291701,26.5428984 C18.8909405,25.1887595 17.5471696,23.8428775 16.2117107,22.483234 C15.857066,22.1281854 15.4941093,21.7896507 15.1810246,21.398822 C13.5906648,19.414403 14.6074976,16.2795164 17.0068906,15.7263012 C18.4060747,15.4042803 19.7720109,15.9905234 20.5644202,17.2483313 C20.5755028,17.2786067 20.5948974,17.2951206 20.6198334,17.333653" id="Fill-1" fill="#E8116A"></path>
                        <path d="M20.5574935,34.6429609 C12.6638785,34.6429609 6.24148479,28.2630951 6.24148479,20.4189979 C6.24148479,12.577653 12.6638785,6.20053958 20.5574935,6.20053958 C28.4511085,6.20053958 34.8735022,12.577653 34.8735022,20.4189979 C34.8735022,28.2630951 28.4511085,34.6429609 20.5574935,34.6429609 M20.5574935,4.80786829 C11.8908639,4.80786829 4.84230066,11.8097572 4.84230066,20.4189979 C4.84230066,29.030991 11.8908639,36.0356322 20.5574935,36.0356322 C29.2241231,36.0356322 36.275457,29.030991 36.275457,20.4189979 C36.275457,11.8097572 29.2241231,4.80786829 20.5574935,4.80786829" id="Fill-3" fill="#FFFFFF"></path>
                        <path d="M20.5574935,38.5509727 C10.4944504,38.5509727 2.30714526,30.4178824 2.30714526,20.4187227 C2.30714526,10.4250676 10.4944504,2.29197731 20.5574935,2.29197731 C30.6233073,2.29197731 38.8106124,10.4250676 38.8106124,20.4187227 C38.8106124,30.4178824 30.6233073,38.5509727 20.5574935,38.5509727 M20.5574935,0.899306019 C9.71866515,0.899306019 0.902419802,9.65717176 0.902419802,20.4187227 C0.902419802,31.1857782 9.71866515,39.943644 20.5574935,39.943644 C31.3935512,39.943644 40.2097965,31.1857782 40.2097965,20.4187227 C40.2097965,9.65717176 31.3935512,0.899306019 20.5574935,0.899306019" id="Fill-5" fill="#FFFFFF"></path>
                    </g>
                </g>
            </g>
        </g>
    </g>
</svg>