<?xml version="1.0" encoding="UTF-8"?>
<svg width="128px" height="180px" viewBox="0 0 128 180" version="1.1" xmlns="http://www.w3.org/2000/svg" xmlns:xlink="http://www.w3.org/1999/xlink">
    <!-- Generator: Sketch 51.3 (57544) - http://www.bohemiancoding.com/sketch -->
    <title>Natural Clean  Icon</title>
    <desc>Created with Sketch.</desc>
    <defs></defs>
    <g id="Desktop" stroke="none" stroke-width="1" fill="none" fill-rule="evenodd">
        <g id="Ingredients" transform="translate(-656.000000, -1764.000000)" fill="#FFFFFF">
            <g id="Natural-+-Clean" transform="translate(135.000000, 1696.000000)">
                <path d="M640.269588,199.644587 C634.144431,215.389774 617.502585,223.964728 601.529131,220.450407 C616.008071,214.109546 626.128759,199.627483 626.128759,182.774222 C626.128759,177.600594 623.998294,170.880655 620.709469,163.588454 C619.505244,160.917806 618.145807,158.170613 616.678421,155.394261 C614.556625,151.380858 612.210261,147.307174 609.782515,143.317043 C608.525994,141.251742 607.248218,139.209993 605.968485,137.20946 C595.609805,121.022949 585.137023,107.620642 585.137023,107.620642 C585.137023,107.620642 574.605512,121.098092 564.218586,137.345726 C562.939132,139.34682 561.662195,141.389971 560.407352,143.455272 C558.00953,147.401102 555.69281,151.427121 553.595905,155.394261 C552.128518,158.170613 550.768802,160.917806 549.564297,163.588454 C546.275752,170.880935 544.145567,177.600594 544.145567,182.774222 C544.145567,199.592155 554.223466,214.048422 568.653745,220.410593 C552.624359,224.030898 535.878758,215.450057 529.730389,199.644587 C528.099121,195.451459 526.282996,183.866313 532.447306,153.385877 C534.396829,143.743786 536.650066,134.753866 538.33475,128.441884 C540.545198,129.848565 543.118927,131.514321 545.917505,133.374381 C544.790187,136.993846 544.145567,140.307973 544.145567,143.15358 C544.145567,149.179571 545.439842,154.901628 547.763554,160.058151 C548.695388,158.094349 549.725103,156.043067 550.841793,153.930942 L552.281493,151.20674 C551.651135,148.624693 551.314702,145.92797 551.314702,143.15358 C551.314702,141.898866 551.510185,140.101891 552.155645,137.59723 C552.649528,135.680251 553.408251,133.346623 554.544518,130.524288 C557.246333,123.810237 562.087561,114.323478 570.611379,101.046782 C575.92272,92.773801 581.279645,85.2197221 585.137023,79.952447 C588.994121,85.2194418 594.351326,92.773801 599.662667,101.046782 C608.124679,114.226746 612.957238,123.672288 615.670519,130.377367 C616.808184,133.188207 617.573619,135.517349 618.076731,137.437692 C618.755191,140.025627 618.959344,141.872229 618.959344,143.15358 C618.959344,145.92797 618.622911,148.624413 617.992552,151.20646 L619.432532,153.930942 C620.548663,156.042786 621.578658,158.093788 622.510212,160.057591 C624.834203,154.901347 626.128759,149.179571 626.128759,143.15358 C626.128759,140.268439 625.465121,136.90188 624.308998,133.223816 C627.020041,131.424318 629.514347,129.810713 631.665227,128.441884 C633.349911,134.753866 635.602868,143.743786 637.552671,153.385877 C643.716981,183.866313 641.900856,195.451459 640.269588,199.644587 M569.984377,141.648203 C570.191606,141.322959 570.399675,140.997154 570.611379,140.667143 C575.92272,132.394162 581.279645,124.840084 585.137023,119.572808 C588.994121,124.840084 594.351326,132.394162 599.662667,140.667143 C599.843888,140.949769 600.021753,141.22819 600.199897,141.507451 C601.564648,143.646213 602.834034,145.687401 604.011411,147.630175 C607.647296,153.631212 610.419865,158.716799 612.529076,163.020398 C609.268217,167.526713 604.931219,171.201413 599.897583,173.659251 C599.747964,173.235592 599.594149,172.812213 599.429988,172.389957 C597.859965,168.354404 594.50514,163.853135 590.106057,159.210273 C588.527085,157.544518 586.814156,155.859977 584.999988,154.172351 C583.185821,155.859977 581.472891,157.544518 579.89392,159.210273 C575.494557,163.853135 572.139732,168.354404 570.569989,172.389957 C570.420929,172.77324 570.27942,173.157926 570.142945,173.542611 C565.208869,171.086176 560.95493,167.456898 557.74497,163.020398 C559.837401,158.751847 562.583122,153.712243 566.17622,147.773731 C567.352478,145.829836 568.619906,143.789208 569.984377,141.648203 M554.444958,170.391667 C558.267658,174.718538 562.984437,178.232297 568.307803,180.638544 C570.510701,181.634465 572.818192,182.438603 575.207344,183.034417 C575.504905,180.690415 576.053601,178.346413 576.867977,176.036898 C576.98991,175.690906 577.115198,175.345754 577.249156,175.001724 C578.061574,172.913993 580.078497,169.445374 584.999988,164.236699 C589.92148,169.445374 591.938682,172.913993 592.750821,175.001724 C592.892609,175.366222 593.024889,175.732122 593.153254,176.098302 C593.963155,178.40978 594.507937,180.754623 594.801302,183.099185 C597.192972,182.519634 599.5027,181.730356 601.710072,180.750697 C607.137752,178.341927 611.945421,174.787512 615.829087,170.391667 C618.366181,176.754959 618.959344,180.586393 618.959344,182.774222 C618.959344,199.472992 606.857251,213.389802 590.984755,216.175127 C590.872331,216.105873 590.761585,216.034655 590.65,215.964279 C598.810257,207.5312 603.070068,195.850724 602.10048,183.983794 C599.975049,184.871486 597.770474,185.594875 595.533737,186.136575 L595.046006,186.254896 C595.268617,193.530274 593.128644,200.646395 589.086969,206.549298 C587.888058,208.30029 586.521629,209.943335 584.999988,211.453197 C583.593009,210.056609 582.319149,208.545345 581.187077,206.940713 C576.95691,200.945564 574.715139,193.6514 574.956487,186.19209 L574.454494,186.06704 C572.218597,185.509638 570.021292,184.772792 567.908166,183.874164 C566.903341,195.778666 571.16483,207.505404 579.349977,215.964279 C579.258528,216.022038 579.167358,216.080077 579.075349,216.137276 C563.308006,213.265032 551.314702,199.397849 551.314702,182.774222 C551.314702,180.586393 551.907865,176.754959 554.444958,170.391667 M635.997191,117.306473 C635.997191,117.306473 630.058849,120.829765 621.735269,126.312655 C611.155935,101.296603 585.137023,68 585.137023,68 C585.137023,68 559.020229,101.422495 548.479768,126.453968 C540.043485,120.890889 534.003065,117.306473 534.003065,117.306473 C534.003065,117.306473 514.824685,181.110709 523.050663,202.256074 C531.27692,223.40228 555.043994,233.858603 576.135542,225.611698 C577.643759,225.022052 579.095485,224.349694 580.492117,223.60752 C580.723118,223.633595 580.954678,223.65855 581.187077,223.68098 L581.187077,248 L589.086969,248 L589.086969,223.68098 C589.243859,223.66612 589.40047,223.650138 589.557081,223.633315 C590.938611,224.365395 592.373836,225.028781 593.864435,225.611698 C614.955703,233.858603 638.723336,223.40228 646.949314,202.256074 C655.175292,181.110709 635.997191,117.306473 635.997191,117.306473" id="Natural-Clean--Icon"></path>
            </g>
        </g>
    </g>
</svg>