<?xml version="1.0" encoding="UTF-8"?>
<svg width="204px" height="143px" viewBox="0 0 204 143" version="1.1" xmlns="http://www.w3.org/2000/svg" xmlns:xlink="http://www.w3.org/1999/xlink">
    <!-- Generator: Sketch 51.3 (57544) - http://www.bohemiancoding.com/sketch -->
    <title>Natural Icon</title>
    <desc>Created with Sketch.</desc>
    <defs>
        <linearGradient x1="-2.22044605e-14%" y1="50%" x2="100%" y2="50%" id="linearGradient-1">
            <stop stop-color="#F17BB1" offset="0%"></stop>
            <stop stop-color="#DE4579" offset="100%"></stop>
        </linearGradient>
    </defs>
    <g id="Desktop" stroke="none" stroke-width="1" fill="none" fill-rule="evenodd">
        <g id="Ingredients" transform="translate(-318.000000, -1174.000000)" fill="url(#linearGradient-1)">
            <g id="Natural" transform="translate(199.000000, 1174.000000)">
                <path d="M221.117456,142.961086 C220.911949,139.958078 221.007764,136.973539 221.157765,133.97317 C221.196091,133.223243 221.247633,132.473975 221.301818,131.724047 C221.374505,130.978077 221.439924,130.229469 221.526488,129.48218 C221.685078,127.986942 221.882656,126.495002 222.099396,125.001743 C222.325388,123.511782 222.563934,122.018523 222.849397,120.53186 C223.11768,119.041239 223.439486,117.559192 223.801601,116.08638 C224.517902,113.136138 225.361075,110.205024 226.333103,107.301611 C227.307114,104.399517 228.39412,101.515892 229.657558,98.6936055 C230.928926,95.8752769 232.349633,93.107735 233.917697,90.4054901 C235.488405,87.7032453 237.243473,85.0926802 239.134666,82.5625823 C241.029162,80.0371013 243.068373,77.5920875 245.301196,75.3132844 C247.527411,73.0278857 249.899661,70.865826 252.402088,68.848871 C254.899229,66.8213629 257.577427,65.0148097 260.331617,63.3388506 C261.700782,62.4840522 263.125454,61.7288483 264.541535,60.9505595 C265.98537,60.2369083 267.41665,59.4764279 268.903437,58.8557756 C270.372382,58.182358 271.878331,57.6157902 273.378334,57.0241588 C274.132961,56.743843 274.894856,56.4892502 275.653448,56.2214661 L276.79596,55.8263857 L277.947064,55.4728579 L280.253235,54.7750363 L282.57923,54.1622988 C284.126809,53.7329209 285.696856,53.4479881 287.261616,53.1036943 C290.399066,52.533169 293.550393,52.0253027 296.706345,51.7364124 C297.494672,51.662541 298.284321,51.563606 299.073309,51.5128193 L301.440273,51.3558424 C303.019571,51.22261 304.590279,51.2364609 306.167594,51.1856742 C307.743588,51.1546746 309.31033,51.2001847 310.882359,51.2074399 C312.44778,51.25295 314.010558,51.3301193 315.574658,51.3927782 L323,51.6895832 L322.922026,59.2528348 L322.916079,59.9091037 L322.901542,60.461161 L322.859251,61.5032764 C322.820264,62.1780132 322.78326,62.8560478 322.72511,63.5129762 C322.67555,64.1778195 322.612775,64.8340884 322.538766,65.4850807 C322.47599,66.1406901 322.397356,66.7916824 322.306827,67.4380578 C321.951981,70.0288359 321.478191,72.5846569 320.882155,75.116074 C320.313872,77.6540867 319.57973,80.1538446 318.787438,82.639092 C318.380389,83.8784179 317.921137,85.1032333 317.485013,86.3346443 C316.990739,87.5482471 316.51695,88.7697647 315.987654,89.9701761 C315.425318,91.1587153 314.886771,92.3564885 314.2947,93.5331555 C313.67091,94.6953121 313.072231,95.8693408 312.420688,97.0183061 C311.738087,98.1514417 311.066721,99.2918326 310.365618,100.413756 L308.124205,103.704993 L305.68984,106.870254 C304.862526,107.91237 303.941379,108.883911 303.063844,109.886453 L302.396442,110.630444 L301.68675,111.335521 L300.261417,112.742377 C299.779037,113.203414 299.32375,113.691493 298.818904,114.128126 L297.305024,115.436707 L295.785859,116.739351 C295.290263,117.185218 294.731232,117.552597 294.205901,117.961528 L292.604797,119.155344 C292.064928,119.543829 291.550169,119.970568 290.982547,120.314203 C289.865805,121.03313 288.751046,121.753377 287.623731,122.453837 C287.071968,122.823194 286.472628,123.106149 285.894433,123.426698 L284.147294,124.361304 L282.398172,125.286676 L280.599491,126.093326 C279.396185,126.616363 278.208738,127.186888 276.993538,127.661116 C274.534723,128.531744 272.113574,129.530328 269.603217,130.149662 C268.354978,130.486041 267.114667,130.865951 265.863123,131.158139 L262.097258,131.939066 L260.215317,132.324253 L258.326107,132.597314 L254.552312,133.122988 L253.608698,133.251604 L252.665084,133.31888 L250.778517,133.452772 L247.011331,133.711981 C244.506261,133.768045 242.008459,133.775959 239.513962,133.804321 L231.669676,133.894681 L233.10492,126.382876 C233.148533,126.155985 233.178269,126.031327 233.209326,125.892158 L233.30448,125.491801 L233.496771,124.740555 C233.626287,124.249837 233.764393,123.77429 233.908446,123.306657 C234.196552,122.368753 234.506465,121.456572 234.830254,120.553625 C235.485761,118.754327 236.198097,116.996582 236.979156,115.277092 C237.762197,113.55958 238.59744,111.872408 239.500746,110.226789 C239.959337,109.406948 240.411981,108.586447 240.907576,107.791669 C241.39326,106.988976 241.878283,106.188922 242.400971,105.413271 C242.909782,104.628387 243.424541,103.848779 243.974321,103.093575 C244.512208,102.329137 245.049433,101.567997 245.627628,100.834559 C246.741066,99.3399809 247.944372,97.9126785 249.179396,96.5242906 C249.810454,95.8403199 250.428297,95.1484344 251.068606,94.4763359 L253.03579,92.5088484 C254.389757,91.2431399 255.727865,89.9675378 257.183594,88.8278065 C258.590424,87.6353099 260.10166,86.5714288 261.577213,85.4844628 C263.106291,84.4647727 264.606954,83.4219977 266.194842,82.5131148 C267.739778,81.5428921 269.370618,80.7223911 270.966436,79.8649544 C271.769961,79.4454699 272.602562,79.0820487 273.427232,78.7087339 C274.251903,78.3367383 275.068645,77.95353 275.918426,77.6408954 L278.433408,76.6568218 C279.269973,76.3283576 280.134953,76.0744244 280.98143,75.7815768 C281.835836,75.5098353 282.669098,75.1899455 283.535399,74.9623949 C284.397735,74.7262701 285.253463,74.4756347 286.11646,74.2553394 C286.547959,74.1445322 286.976153,74.0244911 287.409634,73.9235774 L288.716024,73.6505167 L291.320213,73.1090125 C293.058762,72.7765908 294.817796,72.5536573 296.556345,72.3003837 L296.764495,73.1710117 C295.094008,73.6346871 293.409644,74.0515333 291.75039,74.5514849 L289.277038,75.3521989 L288.040692,75.7525559 C287.632982,75.8950223 287.23188,76.0572757 286.825492,76.2083165 L284.397735,77.1317099 C283.581654,77.4271958 282.805882,77.8137019 282.008304,78.1494213 C281.221298,78.5062469 280.414468,78.8248177 279.642661,79.2152812 L277.322613,80.3767781 C276.540233,80.7481142 275.794197,81.1860665 275.042874,81.6121466 C274.294855,82.0441628 273.528995,82.4497964 272.794853,82.9042378 C271.340445,83.8368652 269.858945,84.7272802 268.469956,85.7568639 C267.037354,86.7237887 265.699246,87.8166908 264.339993,88.8779336 C263.032943,90.003814 261.695495,91.0986948 260.468401,92.3122975 C259.199676,93.4803902 258.017516,94.7388435 256.831391,95.9887224 L255.117291,97.9252103 C254.562224,98.584777 254.028302,99.2608329 253.481165,99.9276549 C252.418608,101.284384 251.383805,102.664197 250.424993,104.096776 C249.926754,104.799874 249.468163,105.529355 249.010233,106.259495 C248.539086,106.981061 248.102962,107.724393 247.672125,108.471023 C247.228071,109.209078 246.8197,109.968899 246.414634,110.728719 C245.995029,111.481285 245.623663,112.258914 245.239081,113.029288 C244.479168,114.575313 243.784673,116.152337 243.139078,117.748488 C242.496786,119.345959 241.921895,120.969152 241.404493,122.608835 C240.897664,124.240603 240.439073,125.925796 240.1285,127.560203 L239.382464,126.695511 C241.733569,126.57547 244.087978,126.481811 246.43644,126.341983 L249.944595,125.96537 L251.698343,125.778713 L252.575877,125.685054 L253.446143,125.538631 L256.920598,124.947659 L258.657825,124.647556 L260.371264,124.241922 L263.798142,123.429336 C264.931404,123.130553 266.042199,122.748663 267.165548,122.412944 C269.431411,121.790313 271.581635,120.847792 273.77481,120.024653 C274.855869,119.577467 275.898602,119.041239 276.963802,118.554479 L278.552351,117.807849 L280.08275,116.951732 L281.61381,116.093635 C282.117995,115.798809 282.64597,115.542237 283.123724,115.20322 L286.04972,113.272668 C286.54928,112.967289 286.991351,112.582102 287.461176,112.235829 L288.851487,111.16931 C289.306774,110.80457 289.796422,110.481382 290.223295,110.081685 L291.535632,108.922826 L292.84863,107.762648 C293.286075,107.376801 293.677265,106.940168 294.092905,106.531896 L295.323964,105.285975 L295.938502,104.663344 L296.511411,104.001799 C297.266038,103.111383 298.060973,102.253287 298.783881,101.338468 L300.903048,98.5511391 L302.858337,95.6450882 C303.470233,94.6504615 304.055035,93.6393458 304.655036,92.6381235 C305.22398,91.6190929 305.74799,90.5736796 306.296449,89.5434364 C306.815172,88.496704 307.284997,87.4268868 307.783235,86.3696014 L309.125969,83.1317883 C309.51782,82.0309715 309.936102,80.938729 310.308129,79.8293378 C311.029056,77.6059384 311.705709,75.3647306 312.227075,73.0832894 C312.778177,70.8091033 313.216945,68.5085346 313.548663,66.194115 C313.876417,63.8902484 314.129501,61.5316378 314.179721,59.2528348 L314.96937,60.0977398 L310.573768,59.8622744 C309.107466,59.8391896 307.641165,59.7725734 306.174202,59.7824669 C304.709221,59.8121474 303.241598,59.7771903 301.777939,59.8662318 L299.58146,59.9625286 C298.849961,59.9935282 298.120444,60.0713571 297.390267,60.1234629 C294.465593,60.3246307 291.562724,60.7342216 288.671751,61.1913014 C285.796636,61.7301674 282.92086,62.3033309 280.112486,63.125151 L279.055876,63.4147008 L278.009178,63.7444842 C277.313362,63.9687368 276.613581,64.1784791 275.921069,64.4132848 C274.547278,64.9119173 273.162915,65.3821883 271.818199,65.9560114 C270.453659,66.4823456 269.136036,67.1161892 267.802554,67.7137567 C266.499468,68.3726638 265.183166,69.0058479 263.915763,69.7353287 C261.365098,71.1573545 258.887121,72.7145916 256.540641,74.4565073 C254.188215,76.1865508 251.938872,78.057082 249.809133,80.0568883 C247.678072,82.0566946 245.687099,84.2029247 243.809123,86.4434728 C241.935111,88.6859997 240.184668,91.0353764 238.56374,93.4704967 C235.320563,98.3413969 232.598752,103.555931 230.309101,108.950528 C228.024736,114.349081 226.215482,119.949462 224.812616,125.648778 C224.118122,128.499426 223.520764,131.377775 223.046975,134.273273 C222.575829,137.166792 222.187282,140.090651 222.014154,143 L221.117456,142.961086 Z M224.829202,63.9148502 C224.68581,61.8233642 224.753211,59.7450694 224.857616,57.6555621 C224.883387,57.1338448 224.921053,56.6121275 224.958057,56.0904102 C225.008277,55.5700121 225.055194,55.0496139 225.114665,54.5292158 C225.225679,53.48776 225.362463,52.4482828 225.514446,51.4088057 C225.670393,50.3713072 225.836913,49.3311705 226.035812,48.2963103 C226.222817,47.2581523 226.446165,46.2265899 226.699249,45.2009637 C227.197488,43.1464133 227.784934,41.1057139 228.460926,39.0834823 C229.139562,37.0625699 229.896171,35.0548488 230.776348,33.08934 C231.661812,31.127129 232.65036,29.199875 233.743314,27.3181312 C234.836928,25.4357278 236.060057,23.6179619 237.375038,21.8569187 C238.695304,20.0978543 240.11535,18.3955126 241.670199,16.8085951 C243.2191,15.2170606 244.871085,13.7119293 246.61492,12.3077118 C248.353469,10.8949198 250.21823,9.63844524 252.135854,8.47035257 C253.090041,7.87476383 254.082554,7.34908915 255.068458,6.80692531 C256.073526,6.31093113 257.070003,5.78063949 258.104807,5.34862329 C259.128377,4.87967135 260.176396,4.48525045 261.220451,4.07302125 C261.745782,3.8777895 262.277721,3.70102562 262.805695,3.51436824 L263.600631,3.23866935 L264.402174,2.99331053 L266.007242,2.50655029 L267.627509,2.08047019 C268.705925,1.78102689 269.799539,1.58315688 270.888528,1.34307459 C273.072452,0.946015426 275.26761,0.592487664 277.464089,0.391319814 C278.01387,0.33987361 278.564972,0.271278671 279.113431,0.235662068 L280.762112,0.126173993 C281.861673,0.0331750852 282.955948,0.043068586 284.054188,0.00745198311 C285.151106,-0.0143137187 286.242077,0.0180050506 287.336352,0.0232815844 C288.426662,0.054940787 289.51499,0.108365691 290.6053,0.151897095 L295.774031,0.358341478 L295.719846,5.62564131 L295.715881,6.08206148 L295.707291,6.46658888 L295.677555,7.19211227 C295.649141,7.66238334 295.624691,8.13397355 295.583061,8.59105328 C295.549361,9.05406912 295.504427,9.51180843 295.452885,9.96559033 C295.409272,10.4213509 295.355087,10.8751328 295.291651,11.3249573 C295.045175,13.1288723 294.714778,14.9083833 294.299139,16.6714052 C293.903984,18.439044 293.39319,20.1796406 292.840766,21.9096841 C292.557946,22.7730569 292.238122,23.6258767 291.934818,24.483973 C291.589883,25.328878 291.259486,26.1790595 290.892085,27.0153901 C290.499573,27.8424867 290.124903,28.6768386 289.711906,29.4953609 C289.278426,30.3053089 288.861465,31.1231716 288.408821,31.9225665 C287.932388,32.7114083 287.465207,33.5061862 286.977541,34.2871132 L285.416085,36.5791075 L283.721148,38.7827199 C283.144275,39.5082433 282.502644,40.1842992 281.89207,40.8827804 L281.427532,41.4011998 L280.933258,41.892577 L279.940745,42.8720336 C279.605723,43.1939021 279.287881,43.5329194 278.936999,43.8369797 L277.88105,44.7478413 L276.824441,45.6547456 C276.479506,45.9654015 276.089638,46.2213134 275.724219,46.5055867 L274.609459,47.3379599 C274.234128,47.6083822 273.875317,47.9058468 273.478841,48.14461 C272.701747,48.6458807 271.924653,49.1464918 271.14029,49.6345712 C270.755708,49.8911426 270.338747,50.0890126 269.936324,50.3126058 L268.719141,50.9629385 L267.501959,51.6073352 L266.249093,52.1679669 C265.411206,52.5327073 264.585214,52.9304261 263.737415,53.260869 C262.025959,53.8670108 260.340273,54.5621941 258.591812,54.9942103 C257.722868,55.2270374 256.859871,55.4921832 255.988284,55.6953298 L253.364931,56.2394723 L252.054577,56.507916 L250.739597,56.6978712 L248.111619,57.0639307 L247.45479,57.1536318 L246.79796,57.200461 L245.484302,57.2934599 L242.858967,57.4735216 C241.116453,57.5137552 239.377243,57.5183722 237.640016,57.5381592 L232.176571,57.6014776 L233.175692,52.3711135 C233.206749,52.2128175 233.228555,52.1257547 233.24904,52.0287984 L233.316441,51.7504612 L233.44926,51.2274248 C233.539789,50.8844501 233.634943,50.5540072 233.736706,50.2288408 C233.936926,49.5758697 234.152345,48.9400474 234.379658,48.3121399 C234.834285,47.0583036 235.331202,45.8341477 235.875696,44.6363746 C236.42019,43.4412397 237.00235,42.2665513 237.630765,41.1202244 C237.949268,40.5496992 238.265788,39.9785144 238.610062,39.4244783 C238.947067,38.8651658 239.286715,38.309151 239.650812,37.7676467 C240.004337,37.2215255 240.363148,36.6793616 240.746409,36.1523678 C241.120418,35.6214166 241.495088,35.091125 241.897512,34.5799608 C242.673284,33.5398241 243.51051,32.5451974 244.370203,31.5782726 C244.80897,31.102725 245.240469,30.6205818 245.685183,30.1529489 L247.056331,28.7823693 C247.998623,27.9011882 248.930343,27.0134114 249.944661,26.219293 C250.923958,25.3895581 251.975942,24.6482051 253.003477,23.8910225 C254.068016,23.1813287 255.113392,22.4551458 256.219561,21.8226213 C257.294673,21.1465654 258.430578,20.5753806 259.541373,19.9784727 C260.101726,19.6862847 260.681243,19.4343302 261.254151,19.1724822 C261.829703,18.9132725 262.397986,18.6474671 262.990057,18.4291505 L264.741161,17.7445202 C265.323321,17.5156506 265.925965,17.3388867 266.516054,17.1350806 C267.110769,16.9464445 267.690285,16.7221918 268.292929,16.5645554 C268.894912,16.4003233 269.490949,16.2255381 270.09095,16.071859 C270.391611,15.9953493 270.689629,15.9115843 270.99029,15.8410107 L271.901525,15.6503959 L273.714744,15.2731237 C274.925979,15.0422754 276.150431,14.8866176 277.361005,14.7105133 L277.505719,15.3166551 C276.342722,15.6398428 275.169812,15.9307118 274.014744,16.2783034 L272.292715,16.8356373 L271.430379,17.1152936 C271.146898,17.2142286 270.866722,17.3263549 270.585223,17.4318856 L268.894912,18.0749632 C268.32663,18.280748 267.7861,18.5498512 267.231033,18.7833378 C266.682574,19.032654 266.120899,19.2536089 265.583013,19.5253504 L263.967371,20.3352983 C263.423538,20.5931889 262.902171,20.8979087 262.379483,21.1947137 C261.858117,21.4961357 261.326178,21.7777707 260.815384,22.0943628 C259.802387,22.7446955 258.769566,23.3640287 257.802824,24.0803182 C256.805686,24.7543953 255.873305,25.5155353 254.926388,26.2535905 C254.016474,27.0384749 253.086076,27.800934 252.23167,28.645839 C251.347527,29.4590848 250.525499,30.3349894 249.699507,31.2056174 L248.505452,32.5544314 C248.118227,33.0128302 247.74686,33.4844205 247.365582,33.9480959 C246.626154,34.8939145 245.905228,35.8549032 245.237826,36.8521681 C244.890248,37.3415666 244.571745,37.849433 244.251921,38.357959 C243.923506,38.8605488 243.620202,39.3783087 243.320862,39.8973877 C243.011611,40.4118497 242.727469,40.9408222 242.445971,41.4704543 C242.153239,41.9948098 241.893547,42.5356546 241.625265,43.0712227 C241.095969,44.1482952 240.613589,45.2464738 240.164249,46.3585033 C239.717552,47.4705328 239.31645,48.6010301 238.956318,49.7420805 C238.604114,50.8791736 238.283629,52.0532023 238.06821,53.1902954 L237.548166,52.5881109 C239.184952,52.5050055 240.823722,52.4397084 242.460508,52.3420926 L244.903464,52.0802446 L246.124611,51.9496504 L246.735846,51.8843533 L247.341133,51.7821204 L249.760961,51.3712103 L250.970875,51.1627873 L252.162947,50.8791736 L254.549735,50.3139249 C255.339384,50.1055018 256.112513,49.8396964 256.895554,49.6068694 C258.472869,49.1722149 259.970228,48.515946 261.496663,47.9427825 C262.250628,47.6321266 262.97618,47.2581523 263.718252,46.919135 L264.82376,46.3993964 L265.890282,45.8031481 L266.954821,45.2055806 C267.307024,45.0004554 267.675087,44.8217128 268.008127,44.5855879 L270.044694,43.2413909 C270.391611,43.0290105 270.700202,42.7612264 271.026634,42.5191654 L271.996019,41.7771528 C272.3132,41.5232196 272.65417,41.2976478 272.950866,41.0193107 L273.864744,40.2113414 L274.779944,39.4046913 C275.083248,39.1362477 275.355496,38.8321874 275.645584,38.5472546 L276.502634,37.6799244 L276.931489,37.2459295 L277.329948,36.7848923 C277.855279,36.1655592 278.409025,35.5686513 278.91255,34.9315098 L280.387442,32.9897454 L281.749338,30.9661947 C282.17489,30.2743092 282.5826,29.569892 283.000882,28.8727299 C283.397359,28.1630362 283.761456,27.4348745 284.143395,26.7179255 C284.50485,25.9891042 284.832603,25.2437938 285.17952,24.508377 L286.112561,22.2526588 C286.38613,21.4862422 286.678201,20.7264214 286.937232,19.9540687 C287.438114,18.4054061 287.90926,16.8442117 288.273358,15.2566346 C288.656618,13.6723553 288.961244,12.0702677 289.193183,10.4589462 C289.421818,8.85422041 289.597589,7.21255884 289.63195,5.62564131 L290.181731,6.21331526 L287.122255,6.04974271 C286.101328,6.03259398 285.080401,5.98708387 284.058153,5.99433911 C283.038548,6.01478567 282.016299,5.99038171 280.996694,6.05172141 L279.467617,6.11965678 C278.957484,6.14076292 278.449994,6.19484739 277.941843,6.23112356 C275.905276,6.37161127 273.883907,6.65654409 271.870468,6.97577439 C269.867601,7.35040828 267.866056,7.74944615 265.910767,8.32195006 L265.173981,8.52311791 L264.445786,8.7533067 C263.962085,8.90962401 263.473758,9.05472869 262.991379,9.21830124 C262.03521,9.5658929 261.071111,9.89369756 260.134105,10.2927354 C259.183883,10.658795 258.266701,11.1007047 257.338286,11.5168913 C256.431016,11.9759497 255.513833,12.4171998 254.632334,12.9244066 C252.85612,13.9144163 251.129465,14.998744 249.496643,16.2123467 C247.859195,17.4167156 246.291792,18.7193598 244.807649,20.1117052 C243.324827,21.5040505 241.93782,22.9986287 240.630109,24.558504 C239.325041,26.120358 238.107197,27.7567431 236.979222,29.4524891 C234.719306,32.8446407 232.82481,36.474896 231.230975,40.231788 C229.639122,43.9913183 228.379649,47.8906768 227.402995,51.8592897 C226.918633,53.8445855 226.502993,55.8483492 226.172596,57.8653043 C225.844843,59.879621 225.575239,61.9163631 225.453653,63.9405733 L224.829202,63.9148502 Z M220.881222,107.675585 L219.985846,107.71384 C219.811397,104.805151 219.424171,101.880632 218.953025,98.9877723 C218.477914,96.0916148 217.881878,93.2145848 217.187384,90.3632779 C215.784518,84.6646214 213.975264,79.0635808 211.690899,73.6650272 C209.401248,68.270431 206.679437,63.0558965 203.434939,58.1849963 C201.814011,55.7498759 200.064889,53.4004993 198.189556,51.1579724 C196.312901,48.9174243 194.321928,46.7711942 192.190867,44.7713879 C190.059807,42.7715816 187.810464,40.9010504 185.458037,39.1710068 C183.112879,37.4290911 180.63358,35.8718541 178.082915,34.4498283 C176.816834,33.7203475 175.49921,33.0871634 174.197446,32.4282563 C172.863964,31.8306888 171.546341,31.1968452 170.181801,30.670511 C168.837085,30.0966879 167.452722,29.6264168 166.077609,29.1277844 C165.386419,28.8929786 164.685316,28.6832364 163.9895,28.4589837 L162.944124,28.1292004 L161.886193,27.8396506 C159.07914,27.0178305 156.203364,26.444667 153.328249,25.905801 C150.437276,25.4487212 147.534407,25.0391303 144.608412,24.8379624 C143.879556,24.7865162 143.150039,24.7080278 142.417219,24.6770282 L140.222061,24.5807314 C138.758402,24.4916899 137.289457,24.526647 135.824477,24.4969664 C134.358835,24.4870729 132.891212,24.5536892 131.426232,24.576774 L127.03063,24.8122393 L127.818957,23.9673344 C127.869177,26.2461374 128.123583,28.604748 128.450015,30.9092741 C128.783055,33.2230342 129.220501,35.5236029 129.772925,37.7977889 C130.294291,40.0792302 130.970944,42.3204379 131.690549,44.5451565 C132.062576,45.6532286 132.48218,46.7454711 132.87271,47.8462879 L134.215443,51.084101 C134.713682,52.142046 135.184828,53.2112036 135.70223,54.2585956 C136.25201,55.2881792 136.774698,56.3335925 137.343642,57.3526231 C137.943643,58.3538453 138.529767,59.3649611 139.140341,60.3595877 L141.09563,63.2656387 L143.216119,66.0529677 C143.939027,66.9677867 144.733962,67.825883 145.488589,68.7162981 L146.060176,69.3778435 L146.676036,70.0004745 L147.905774,71.246396 C148.322735,71.6546678 148.713925,72.091301 149.150049,72.4771475 L150.463047,73.6373254 L151.775383,74.7961841 C152.202256,75.1958816 152.691905,75.5190693 153.148513,75.8844692 L154.538824,76.950329 C155.007327,77.2966016 155.449398,77.6824481 155.948959,77.9871679 L158.876276,79.9183793 C159.35403,80.256737 159.881344,80.5133085 160.38619,80.8081348 L161.915929,81.6662311 L163.446327,82.5223487 L165.036198,83.2689782 C166.100076,83.7557385 167.142809,84.2919662 168.223868,84.7391524 C170.417044,85.5629513 172.568589,86.5048125 174.834452,87.1274435 C175.957801,87.463163 177.067275,87.8450521 178.201858,88.1438358 L181.628736,88.956422 L183.342175,89.3620556 L185.078081,89.6621584 L188.553857,90.2531302 L189.422801,90.399554 L190.300336,90.4932125 L192.054083,90.6798699 L195.56356,91.0564825 C197.912022,91.1963106 200.266431,91.2899691 202.617536,91.4100103 L201.870178,92.2747022 C201.560927,90.6402959 201.101014,88.9551029 200.595507,87.3233348 C200.078105,85.683652 199.501892,84.0611178 198.860922,82.4629877 C198.215327,80.8668362 197.520832,79.2898122 196.760919,77.7437878 C196.376337,76.9734139 196.003649,76.1964443 195.584045,75.4432191 C195.178978,74.6833982 194.770607,73.9242369 194.326554,73.1861818 C193.897038,72.4388927 193.460914,71.695561 192.989767,70.973995 C192.530516,70.2438546 192.073246,69.5143738 191.573686,68.8112757 C190.614874,67.3786968 189.58007,65.9988832 188.517513,64.6421545 C187.971698,63.9753325 187.437776,63.2992766 186.881387,62.6397099 L185.167288,60.703222 C183.981163,59.4533431 182.800324,58.1948898 181.530277,57.0267971 C180.303183,55.8131943 178.967057,54.7183136 177.660007,53.5924332 C176.299432,52.5311903 174.961324,51.4382883 173.530044,50.4713635 C172.141055,49.4417798 170.658233,48.5513647 169.203826,47.6187374 C168.469684,47.1642959 167.705145,46.759322 166.957126,46.3266462 C166.205803,45.9005661 165.458445,45.4626138 164.676065,45.0912777 L162.357339,43.9297807 C161.585532,43.5393172 160.77738,43.2207465 159.990375,42.8639209 C159.193457,42.5282015 158.417024,42.1416954 157.602265,41.8462095 L155.174508,40.9228161 C154.76812,40.7717753 154.367018,40.6095219 153.957986,40.4670555 L152.721641,40.0666985 L150.248288,39.2659845 C148.589035,38.7660329 146.905992,38.3491867 145.234183,37.8855113 L145.442334,37.0148832 C147.180883,37.2681569 148.939916,37.4910904 150.678465,37.823512 L153.282655,38.3656759 L154.590366,38.6380769 C155.023847,38.7389906 155.45072,38.8596914 155.882218,38.969839 C156.746537,39.1907938 157.600944,39.4407696 158.464601,39.6768945 C159.329581,39.904445 160.164164,40.2243349 161.017249,40.4960764 C161.863726,40.788924 162.730027,41.0428572 163.56527,41.3713214 L166.080252,42.355395 C166.930694,42.6680296 167.748097,43.0512379 168.572768,43.4232335 C169.396117,43.7965483 170.230039,44.1599695 171.033564,44.579454 C172.629382,45.4368907 174.2589,46.2573917 175.803836,47.2276143 C177.391725,48.1364973 178.892388,49.1799318 180.421465,50.1989624 C181.89834,51.2859284 183.408254,52.3498095 184.815085,53.5423061 C186.272135,54.6820374 187.608922,55.9576395 188.96421,57.223348 L190.930072,59.1908355 C191.570382,59.862934 192.189546,60.5548195 192.820604,61.2387902 C194.055628,62.6271781 195.257612,64.0544805 196.37105,65.5490587 C196.949245,66.2824969 197.486471,67.0436369 198.024357,67.8080747 C198.574138,68.5632786 199.088896,69.3428865 199.599029,70.1277709 C200.121717,70.9034213 200.60674,71.7034758 201.091102,72.5061685 C201.588019,73.3009464 202.040663,74.1214474 202.499254,74.9412888 C203.401238,76.5869078 204.236482,78.2740794 205.019523,79.9915912 C205.800581,81.7110816 206.514239,83.4688269 207.168425,85.2687845 C207.493535,86.1710718 207.802126,87.0832526 208.090232,88.0211564 C208.235607,88.4887892 208.373713,88.9643369 208.503229,89.4550545 L208.69552,90.206301 L208.790674,90.606658 C208.821731,90.7458266 208.851467,90.8704847 208.89508,91.0973756 L210.330324,98.6085214 L202.484717,98.5188204 C199.991541,98.4897994 197.492418,98.4825442 194.988669,98.4258215 L191.220161,98.1666117 L189.334916,98.0333793 L188.38998,97.9661035 L187.447688,97.8381475 L183.672572,97.3111537 L181.784683,97.0387526 L179.902742,96.6535657 L176.135555,95.8719791 C174.884011,95.5804506 173.645022,95.2005402 172.396783,94.8641612 C169.886426,94.244828 167.463955,93.246244 165.006462,92.3756159 C163.78994,91.9013875 162.603815,91.3308622 161.400509,90.8078258 L159.601828,90.0018353 L157.852706,89.0758036 L156.105567,88.1411976 C155.527372,87.8206482 154.928032,87.537694 154.375608,87.1683367 C153.248954,86.4678768 152.134195,85.74763 151.017453,85.0287022 C150.448509,84.685068 149.935072,84.2583283 149.393882,83.8698435 L147.792778,82.6760277 C147.267447,82.2670964 146.709737,81.8997177 146.212819,81.4538506 L144.694976,80.1518659 L143.179775,78.842626 C142.674928,78.4059928 142.219641,77.9179134 141.737261,77.4568763 L140.31325,76.0500205 L139.602236,75.3449436 L138.936156,74.6009524 C138.058621,73.598411 137.137474,72.6268692 136.308839,71.5847538 L133.875795,68.4194931 L131.633721,65.1289147 C130.933279,64.0063321 130.261913,62.8659413 129.577991,61.7328057 C128.927769,60.5838404 128.327768,59.4098117 127.703979,58.2476551 C127.113229,57.0709881 126.57336,55.8738745 126.011025,54.6846757 C125.48305,53.4842643 125.007939,52.2627467 124.513665,51.0491439 C124.077541,49.8177329 123.619611,48.5929175 123.21124,47.3535916 C122.42027,44.8683442 121.686128,42.3685863 121.117845,39.8312331 C120.520487,37.2991565 120.046698,34.7433355 119.693173,32.1525574 C119.601323,31.506182 119.52401,30.8558492 119.459913,30.1995803 C119.385904,29.548588 119.323128,28.8923191 119.27489,28.2274758 C119.215419,27.5705474 119.178414,26.8925128 119.139428,26.217776 L119.097137,25.1756606 L119.083921,24.6236033 L119.077974,23.9673344 L119,16.4040828 L126.424021,16.1072778 C127.989442,16.0446189 129.55222,15.9674496 131.117641,15.9219395 C132.68967,15.9146843 134.256412,15.8691742 135.831085,15.9001738 C137.4084,15.9509604 138.980429,15.9377691 140.559727,16.070342 L142.925369,16.2273189 C143.714357,16.2781055 144.504006,16.3777001 145.293655,16.450912 C148.448286,16.7398022 151.600934,17.2476686 154.738384,17.8188534 C156.302483,18.1624877 157.871869,18.4474205 159.42077,18.8767984 L161.746765,19.4895359 L164.052936,20.1873575 L165.20404,20.5408853 L166.345231,20.9359657 C167.103822,21.2037498 167.866379,21.4583426 168.620345,21.7386584 C170.121669,22.3309493 171.627618,22.8968576 173.095242,23.5702752 C174.58335,24.1909275 176.013308,24.9514079 177.457143,25.6650591 C178.873225,26.4433478 180.297897,27.1985517 181.668383,28.0533502 C184.422573,29.7293092 187.100771,31.5358625 189.597912,33.5633706 C192.099017,35.5803256 194.472589,37.7423853 196.697483,40.027784 C198.930306,42.306587 200.969516,44.7516009 202.865334,47.2770818 C204.755205,49.8071798 206.511595,52.4177449 208.080981,55.1199897 C209.650367,57.8222346 211.071074,60.5897765 212.34112,63.4081051 C213.60588,66.2310507 214.691565,69.1140168 215.666897,72.0161104 C216.637603,74.9201827 217.480776,77.8506376 218.197077,80.8008795 C218.560514,82.273692 218.88232,83.7557385 219.150603,85.2463592 C219.435405,86.7330226 219.673291,88.2262817 219.900604,89.7162429 C220.117344,91.209502 220.314922,92.7014419 220.473512,94.1966796 C220.560076,94.9439687 220.624173,95.692577 220.698182,96.4392065 C220.752367,97.1884743 220.803909,97.9377421 220.842235,98.6876694 C220.992236,101.688038 221.08739,104.672578 220.881222,107.675585 Z" id="Natural-Icon"></path>
            </g>
        </g>
    </g>
</svg>