<?xml version="1.0" encoding="UTF-8"?>
<svg width="128px" height="128px" viewBox="0 0 128 128" version="1.1" xmlns="http://www.w3.org/2000/svg" xmlns:xlink="http://www.w3.org/1999/xlink">
    <!-- Generator: Sketch 51.3 (57544) - http://www.bohemiancoding.com/sketch -->
    <title>No Allergies Icon</title>
    <desc>Created with Sketch.</desc>
    <defs></defs>
    <g id="Desktop" stroke="none" stroke-width="1" fill="none" fill-rule="evenodd">
        <g id="Ingredients" transform="translate(-956.000000, -2984.000000)" stroke="#EED6D3">
            <g id="Explanations" transform="translate(0.000000, 2400.000000)">
                <g id="No-Allergins" transform="translate(864.000000, 584.000000)">
                    <g id="No-Allergies-Icon" transform="translate(92.000000, 0.000000)">
                        <path d="M64,1 C29.2050847,1 1,29.2050847 1,64 C1,98.7907411 29.2073105,127 64,127 C98.7885153,127 127,98.7885153 127,64 C127,29.2073105 98.7907411,1 64,1 Z" id="Stroke-1" stroke-width="2"></path>
                        <path d="M64,9 C33.6234847,9 9,33.6234847 9,64 C9,94.3728648 33.6254342,119 64,119 C94.3709153,119 119,94.3709153 119,64 C119,33.6254342 94.3728648,9 64,9 Z" id="Stroke-1" stroke-width="2"></path>
                        <path d="M75.4014756,41.6688991 C75.4014756,41.671057 75.0589346,46.8933661 74.126828,51.303196 C72.2000351,52.4836105 66.219841,56.2784165 63.3938782,59.4797782 C63.1655175,59.2488745 62.9689957,58.9866801 62.8010188,58.6975109 C62.4112687,58.0220635 62.1851039,57.2085054 62.1378947,56.3097072 C62.1159369,55.8932172 62.1313074,55.4583845 62.184006,55.0138408 C62.3025778,54.0222495 62.6154758,52.9788667 63.1128189,51.9505897 C63.2259014,51.717528 63.3488648,51.4844663 63.4828071,51.2524835 C63.5387994,51.1542955 63.5904001,51.0539495 63.6507839,50.9557614 C63.8637741,50.6094058 64.1634974,50.2382334 64.4994511,49.8595081 C64.7958807,49.5250214 65.1197576,49.1862187 65.4886478,48.8377051 C69.0183567,45.4928377 75.4014756,41.6688991 75.4014756,41.6688991 Z M75.4014756,52.1739405 C75.4014756,52.1750195 75.0589346,57.3973286 74.126828,61.8071585 C72.2000351,62.989731 66.219841,66.783458 63.3938782,69.9848197 C63.1655175,69.753916 62.9689957,69.4917215 62.8010188,69.2036314 C62.4112687,68.5281839 62.1851039,67.7135469 62.1378947,66.8147487 C62.1159369,66.3982587 62.1313074,65.964505 62.184006,65.5188823 C62.3025778,64.52837 62.6154758,63.4839082 63.1128189,62.4567102 C63.2259014,62.2225695 63.3488648,61.9895078 63.4828071,61.757525 C63.5387994,61.658258 63.5904001,61.5600699 63.6507839,61.4608029 C63.6628607,61.4424601 63.679329,61.4230383 63.6914057,61.4046955 C63.8231523,61.1964505 63.9878354,60.9784946 64.167889,60.7573018 C64.2963418,60.5997693 64.4302841,60.4389999 64.578499,60.2749935 C66.8028194,57.8116605 71.1976637,54.8379655 73.6492468,53.2691149 C73.7491546,53.2043755 73.8282025,53.155821 73.9204251,53.0964765 C74.2519872,52.8860736 74.5396337,52.7058824 74.7690923,52.5634557 C74.8898599,52.4879265 74.9853761,52.429661 75.0721093,52.3757116 C75.1972685,52.2991033 75.2829037,52.2473118 75.3279171,52.2192581 C75.3476791,52.2073892 75.387203,52.1825725 75.3915946,52.1804145 L75.4014756,52.1739405 Z M75.4014756,62.680061 C75.4014756,62.68114 75.0589346,67.9023701 74.126828,72.3122 C72.2000351,73.4936935 66.219841,77.2884995 63.3938782,80.4898612 C63.1655175,80.2589575 62.9689957,79.995684 62.8010188,79.7075939 L62.8010188,79.7086728 C62.4112687,79.0332254 62.1851039,78.2185884 62.1378947,77.3197902 C62.1159369,76.9022212 62.1313074,76.4684675 62.184006,76.0239238 C62.3025778,75.0323325 62.6154758,73.9889497 63.1128189,72.9617517 C63.2259014,72.726532 63.3488648,72.4934703 63.4828071,72.2625665 C63.5387994,72.1643785 63.5904001,72.0640324 63.6507839,71.9658444 C63.6628607,71.9475016 63.679329,71.9280798 63.6914057,71.908658 C63.8231523,71.701492 63.9878354,71.4846151 64.167889,71.2634223 C64.2963418,71.1037318 64.4302841,70.9440414 64.578499,70.780035 C66.8028194,68.316702 71.1976637,65.343007 73.6492468,63.7730774 C73.7491546,63.710496 73.8282025,63.6608624 73.9204251,63.601518 C74.2519872,63.3911151 74.5396337,63.2109238 74.7690923,63.0684972 C74.8898599,62.992968 74.9853761,62.9336235 75.0721093,62.8796741 C75.1972685,62.8030658 75.2829037,62.7512743 75.3279171,62.7242996 C75.3476791,62.7124307 75.387203,62.6876139 75.3915946,62.686535 C75.3915946,62.685456 75.4014756,62.680061 75.4014756,62.680061 Z M75.4014756,73.1840235 C75.4014756,73.1861815 74.8514338,81.5871935 73.2441263,86.0757897 C73.0146678,86.7167095 72.7632515,87.278863 72.4887796,87.7244856 C72.3032366,88.0255237 72.103421,88.3092979 71.8970181,88.5822822 C71.8476132,88.6491796 71.7971104,88.7160769 71.7455096,88.7797373 C71.536911,89.0451687 71.321725,89.3019682 71.096658,89.5371879 C71.0856792,89.5490568 71.0747003,89.5598467 71.0626235,89.5717156 C70.8463396,89.7961454 70.6212727,90.0054694 70.392912,90.2029244 C70.334724,90.2525579 70.2765359,90.3021915 70.2183479,90.350746 C69.9801063,90.5482011 69.7363752,90.7348662 69.4882526,90.8999516 C69.465197,90.9161365 69.4410434,90.9280054 69.4179878,90.9431112 C69.1885293,91.0941697 68.9546792,91.2279644 68.7208291,91.3488113 C68.6593474,91.3801019 68.6000615,91.4124716 68.5385798,91.4416043 C68.2860656,91.5635302 68.0313557,91.6735871 67.7788415,91.7609852 C67.7459049,91.7717751 67.715164,91.7782491 67.6833253,91.789039 C67.4549646,91.8645682 67.226604,91.9206757 67.001537,91.9659932 C66.9400553,91.9778621 66.8807694,91.99081 66.8214835,91.9994419 C66.572263,92.0404435 66.3252382,92.0641813 66.083703,92.0663392 C65.9837952,92.0663392 65.8849853,92.0587863 65.7861754,92.0523124 C65.7126169,92.0479964 65.6368627,92.0469174 65.5633042,92.0393645 C65.4568091,92.0274956 65.3547055,92.0037579 65.2493083,91.9832571 C65.1834351,91.9703092 65.1164639,91.9616773 65.0516886,91.9465714 C64.9353125,91.9163597 64.82223,91.8742791 64.7102455,91.8343565 C64.6619384,91.8170927 64.6103377,91.8052238 64.5620307,91.784723 C64.5411708,91.7760911 64.5225067,91.7642222 64.5016468,91.7545113 L64.4994511,91.7555903 L64.4983532,91.7545113 C64.3611172,91.6951669 64.226077,91.6304275 64.0965263,91.5527403 C62.5704624,90.6463891 61.9216108,88.7171559 62.184006,86.5289653 C62.3025778,85.537374 62.6154758,84.4929122 63.1128189,83.4657142 C63.2259014,83.2326525 63.3488648,82.9995907 63.4828071,82.767608 C63.5387994,82.668341 63.5904001,82.5690739 63.6507839,82.4708859 C63.6628607,82.4525431 63.679329,82.4320423 63.6914057,82.4147784 C63.8231523,82.2065335 63.9878354,81.9885776 64.167889,81.7673848 C64.2963418,81.6098523 64.4302841,81.4490829 64.578499,81.2850765 C66.8028194,78.8228225 71.1976637,75.8491275 73.6492468,74.2791978 C73.7491546,74.2144585 73.8282025,74.1648249 73.9204251,74.1054805 C74.2519872,73.8961566 74.5396337,73.7148863 74.7690923,73.5724597 C74.8898599,73.4980095 74.9853761,73.438665 75.0721093,73.3857945 C75.1972685,73.3081073 75.2829037,73.2563158 75.3279171,73.2293411 C75.3476791,73.2163932 75.387203,73.1926554 75.3915946,73.1904975 L75.4014756,73.1840235 Z M62.1796144,91.9994419 C62.1192306,91.99081 62.0599447,91.9778621 61.9995608,91.9659932 C61.773396,91.9206757 61.5461332,91.8645682 61.3177726,91.789039 C61.2859339,91.7782491 61.2540951,91.7717751 61.2222564,91.7609852 C60.9686443,91.6735871 60.7150323,91.5635302 60.4625181,91.4416043 C60.4010364,91.4124716 60.3395547,91.3801019 60.2791709,91.3488113 C60.0453208,91.2268854 59.8114707,91.0941697 59.5809143,90.9431112 C59.5578587,90.9280054 59.534803,90.9161365 59.5117474,90.8999516 C59.2647227,90.7348662 59.0209916,90.5482011 58.7805542,90.350746 C58.7234641,90.3021915 58.6663739,90.2525579 58.6081859,90.2029244 C58.3787273,90.0054694 58.1547582,89.7961454 57.9373765,89.5717156 C57.9263976,89.5598467 57.9143208,89.5490568 57.903342,89.5371879 C57.6771771,89.3008892 57.463089,89.0440897 57.2544904,88.7797373 C57.2039875,88.714998 57.1534847,88.6502586 57.1040798,88.5833612 C56.8976769,88.3092979 56.6978613,88.0266027 56.5112204,87.7244856 C55.5516666,86.1642668 54.8742699,83.1873349 54.4153529,80.3290918 C54.3824162,80.1262418 54.3505775,79.9223128 54.3209345,79.7205417 C54.199069,78.9112996 54.0936718,78.1204003 54.0047429,77.3856085 C53.8718985,76.2818023 53.7752844,75.3031588 53.7094111,74.567288 C53.6545167,73.954422 53.6215801,73.5120363 53.6062097,73.3081073 C53.6018181,73.2271831 53.5985244,73.1840235 53.5985244,73.1840235 C53.5996223,73.1840235 57.4103904,75.4682442 60.7721224,78.048108 C60.9686443,79.4766901 61.55821,80.719686 62.525449,81.6130893 C62.496904,81.6562488 62.4584779,81.7026454 62.4321286,81.746884 C60.0815511,85.5654277 60.150718,89.8069353 62.4200518,92.0210217 C62.339906,92.0123898 62.2608581,92.0123898 62.1796144,91.9994419 Z M53.5985244,62.680061 C53.5996223,62.680061 57.4103904,64.9632027 60.7721224,67.5430666 C60.9686443,68.9716486 61.55821,70.2157235 62.525449,71.1069688 C62.496904,71.1512074 62.4584779,71.1976039 62.4321286,71.2407635 C61.4143867,72.8937753 60.8533661,74.6266324 60.7249133,76.2408007 C58.3381055,74.4777319 55.9633745,72.9811735 54.8742699,72.3122 C54.7019015,71.498642 54.5492952,70.6559512 54.4153529,69.8251293 C54.3824162,69.6201213 54.3505775,69.4172713 54.3209345,69.2144213 C54.199069,68.4051791 54.0936718,67.6164378 54.0047429,66.880567 C53.8718985,65.7778398 53.7752844,64.7981173 53.7094111,64.0622465 C53.6545167,63.4504595 53.6215801,63.0059158 53.6062097,62.8030658 C53.6018181,62.7221416 53.5985244,62.680061 53.5985244,62.680061 Z M53.5985244,52.1739405 C53.5996223,52.1739405 57.4103904,54.4592402 60.7721224,57.0380251 C60.9686443,58.4655281 61.55821,59.710682 62.525449,60.6019273 C62.496904,60.6461659 62.4584779,60.6925624 62.4321286,60.735722 C61.4143867,62.3887339 60.8533661,64.121591 60.7249133,65.7357592 C58.3381055,63.9737694 55.9633745,62.475053 54.8742699,61.8071585 C54.7019015,60.9925215 54.5492952,60.1519887 54.4153529,59.3190088 C54.3824162,59.1161588 54.3505775,58.9122298 54.3209345,58.7104588 C54.199069,57.9012167 54.0936718,57.1113964 54.0047429,56.3755255 C53.8718985,55.2717193 53.7752844,54.2919969 53.7094111,53.558284 C53.6545167,52.944339 53.6215801,52.5019533 53.6062097,52.2991033 C53.6018181,52.2171001 53.5985244,52.1739405 53.5985244,52.1739405 Z M53.5985244,41.6688991 C53.5996223,41.669978 59.9827412,45.4939167 63.51245,48.8377051 C63.0765886,49.3178554 62.7055026,49.7861368 62.4321286,50.2317595 C61.4143867,51.8847714 60.8533661,53.6165495 60.7249133,55.2307177 C58.3381055,53.4687279 55.9633745,51.9710905 54.8742699,51.303196 C54.7019015,50.488559 54.5492952,49.6469472 54.4153529,48.8150463 C54.3824162,48.6111173 54.3505775,48.4071883 54.3209345,48.2054173 C54.199069,47.3961752 54.0936718,46.6052759 54.0047429,45.871563 C53.8718985,44.7677568 53.7752844,43.7880344 53.7094111,43.0521636 C53.6545167,42.4392975 53.6215801,41.9969119 53.6062097,41.7929828 C53.6018181,41.7120586 53.5985244,41.6688991 53.5985244,41.6688991 Z M64.41162,25.0341184 C64.41162,25.0341184 64.7365948,25.6426685 65.222959,26.6213119 C65.467788,27.1111731 65.7521409,27.6916695 66.0562558,28.3358262 C66.3614685,28.9799829 66.6864433,29.686721 67.011418,30.4247498 C67.1750033,30.7948432 67.3363928,31.1714105 67.4966844,31.5544518 C68.1378508,33.0823009 68.7383953,34.6802843 69.1358307,36.1110243 C69.3422335,36.8501321 69.4904484,37.5417643 69.5662026,38.1578673 C69.5991393,38.4340886 69.621097,38.69952 69.6221949,38.9412137 C69.6276843,40.7636269 69.1918229,42.4371396 68.4595319,43.7437958 C67.5164464,45.4227034 66.0880945,46.4973769 64.4829827,46.5016929 L64.4720039,46.5016929 C64.3775855,46.5016929 64.2864608,46.488745 64.1942383,46.4822711 C64.1129946,46.4747182 64.030653,46.4757971 63.9494093,46.4628493 C63.8593825,46.4509804 63.7715515,46.4250846 63.6826226,46.4056628 C63.6013789,46.386241 63.5179395,46.3743721 63.4377937,46.3506344 C63.3576479,46.3268966 63.2829915,46.2923689 63.2050415,46.2643152 C63.1172105,46.2319455 63.0271837,46.2038918 62.9404506,46.1650482 C62.8756752,46.1359155 62.8130956,46.0970718 62.7483202,46.0625442 C62.6539019,46.0139897 62.5583857,45.9686721 62.467261,45.9125646 C62.4057793,45.8748 62.3475912,45.8284035 62.2894032,45.7874019 C62.1971806,45.7258995 62.1038602,45.6654761 62.0149313,45.5964207 C61.9710158,45.5608141 61.929296,45.5198125 61.8864784,45.4842058 C61.7865706,45.3978867 61.6844671,45.3137255 61.5867551,45.2176954 C61.55821,45.1896417 61.5296649,45.154035 61.5011198,45.1249023 C61.3946247,45.0159244 61.2892275,44.9058675 61.1893197,44.7860996 C61.157481,44.748335 61.1311317,44.7062544 61.1014887,44.6684898 C61.0059725,44.548722 60.9104563,44.4289541 60.8215274,44.2994754 C60.8006675,44.2692637 60.7831013,44.236894 60.7622414,44.2066823 C60.6667252,44.0631767 60.5734048,43.9185921 60.4866716,43.7642966 C60.4723991,43.7416378 60.4625181,43.7157421 60.4493435,43.6920043 C60.3582188,43.5290769 60.2692899,43.3596756 60.1880462,43.1848793 C60.1759694,43.1600625 60.1671863,43.1330878 60.1551096,43.108271 C60.0749638,42.9313167 59.9981116,42.7511255 59.9278468,42.5644603 C59.9102806,42.5169848 59.8960081,42.4662723 59.8784419,42.4177178 C59.8191559,42.2504744 59.75987,42.082152 59.7082693,41.9062767 C59.6939968,41.8598802 59.6852136,41.8113257 59.672039,41.7638501 C59.6226341,41.5836589 59.5732291,41.4013097 59.5326073,41.2135655 C59.5282157,41.1941437 59.5260199,41.1704059 59.5205305,41.1509841 C59.3767072,40.4615098 59.2965614,39.731034 59.2932678,38.9746624 C59.2789952,34.807605 64.4105222,25.0351974 64.41162,25.0341184 Z M77,49.5768129 L75.7758553,50.3105257 C76.4927759,46.4304796 76.7782267,42.4554824 76.824338,41.7595342 L77,39.0728504 L74.6604014,40.4733787 C74.2322252,40.7301782 72.3669141,41.8598802 70.1941944,43.3575176 C70.7431382,42.0217286 71.0527425,40.5133013 71.0472531,38.9368977 C71.0329805,34.5529635 66.2231347,25.4128437 65.6741909,24.3834877 L64.4006412,22 L63.1457556,24.3921197 C62.6033991,25.4236336 57.853937,34.5961231 57.8682096,38.9789783 C57.873699,40.5402761 58.1602477,41.9958329 58.6630802,43.2604085 C56.5518423,41.8124047 54.7589917,40.7247833 54.3395986,40.4733787 L52,39.0728504 L52.175662,41.7595342 C52.2217733,42.4554824 52.5061262,46.4304796 53.2241447,50.3105257 L52,49.5768129 L52.175662,52.2634967 C52.2217733,52.9594449 52.5061262,56.9355211 53.2241447,60.8155672 L52,60.0818544 L52.175662,62.7696171 C52.2217733,63.4644864 52.5061262,67.4416416 53.2241447,71.3195297 L52,70.5879748 L52.175662,73.2746586 C52.2514163,74.4324143 52.9837073,84.6989991 55.2925651,88.4484876 C57.1688551,91.4998698 60.1737737,93.4701046 62.9470379,93.4701046 C63.2226077,93.4701046 63.4893944,93.4452878 63.7528874,93.4086022 L63.7528874,100.239684 C61.3353388,95.068088 53.5985244,96.0575213 53.5985244,96.0575213 C62.2465856,98.6557279 63.6123578,107.528258 63.7528874,108.669829 L63.7528874,109 L65.1768477,109 L65.1768477,93.3945753 C65.4622985,93.4388139 65.7532388,93.4701046 66.0529621,93.4701046 C68.8262263,93.4701046 71.8311449,91.4998698 73.7085328,88.4484876 C76.0173905,84.6989991 76.7485837,74.4324143 76.824338,73.2746586 L77,70.5879748 L75.7758553,71.3195297 C76.4927759,67.4405626 76.7782267,63.4644864 76.824338,62.7696171 L77,60.0818544 L75.7758553,60.8144882 C76.4927759,56.9355211 76.7782267,52.9594449 76.824338,52.2634967 L77,49.5768129 Z" id="Wheat" stroke-width="0.5" fill="#EED6D3"></path>
                        <path d="M103.5,25.5 L25.8340486,103.165951" id="Line-2" stroke-width="2" stroke-linecap="square"></path>
                    </g>
                </g>
            </g>
        </g>
    </g>
</svg>