<?xml version="1.0" encoding="UTF-8"?>
<svg width="20px" height="20px" viewBox="0 0 20 20" version="1.1" xmlns="http://www.w3.org/2000/svg" xmlns:xlink="http://www.w3.org/1999/xlink">
    <!-- Generator: Sketch 51.3 (57544) - http://www.bohemiancoding.com/sketch -->
    <title>Phone</title>
    <desc>Created with Sketch.</desc>
    <defs></defs>
    <g id="Symbols" stroke="none" stroke-width="1" fill="none" fill-rule="evenodd" stroke-linecap="round" stroke-linejoin="round">
        <g id="Footer" transform="translate(-381.000000, -266.000000)" stroke="#494949">
            <path d="M400.139364,280.432193 L400.139364,283.168395 C400.143925,284.175318 399.329448,284.996179 398.322526,284.999827 C398.265066,285.000739 398.208517,284.998003 398.151057,284.992531 C395.344625,284.6879 392.648554,283.728405 390.279914,282.192483 C388.076359,280.792459 386.207532,278.924545 384.807509,276.720078 C383.266114,274.340494 382.306619,271.631653 382.007461,268.812452 C381.917167,267.809178 382.656853,266.921736 383.660128,266.831441 C383.71394,266.826881 383.767752,266.824145 383.822476,266.824145 L386.558678,266.824145 C387.474394,266.815024 388.255124,267.486306 388.382814,268.392901 C388.498646,269.268486 388.712982,270.128565 389.021261,270.955811 C389.272079,271.622532 389.111556,272.374076 388.61083,272.880273 L387.452505,274.038599 C388.751289,276.322416 390.641093,278.21222 392.92491,279.511005 L394.083236,278.352679 C394.589433,277.851954 395.340977,277.69143 396.007698,277.94316 C396.834944,278.250527 397.695023,278.465775 398.570608,278.580696 C399.487236,278.710209 400.162166,279.506444 400.139364,280.432193 Z" id="Phone"></path>
        </g>
    </g>
</svg>