<?xml version="1.0" encoding="UTF-8"?>
<svg width="20px" height="20px" viewBox="0 0 20 20" version="1.1" xmlns="http://www.w3.org/2000/svg" xmlns:xlink="http://www.w3.org/1999/xlink">
    <!-- Generator: Sketch 51.3 (57544) - http://www.bohemiancoding.com/sketch -->
    <title>Pinterest</title>
    <desc>Created with Sketch.</desc>
    <defs></defs>
    <g id="Desktop" stroke="none" stroke-width="1" fill="none" fill-rule="evenodd">
        <g id="Product-Detail_Ingredient-Expanded" transform="translate(-48.000000, -247.000000)" fill="#898C8E">
            <g id="Share" transform="translate(48.000000, 192.000000)">
                <path d="M9.90708014,55 C4.43557695,55 0,59.4355951 0,64.9071207 C0,69.1041985 2.6113365,72.6922732 6.29668715,74.1358028 C6.21011633,73.351952 6.13182902,72.1463713 6.33103936,71.2907297 C6.51108392,70.5175176 7.49276129,66.3661618 7.49276129,66.3661618 C7.49276129,66.3661618 7.19642271,65.7727513 7.19642271,64.8953451 C7.19642271,63.517759 7.99488828,62.4892999 8.98907212,62.4892999 C9.83431517,62.4892999 10.2425624,63.1238845 10.2425624,63.8848337 C10.2425624,64.7348717 9.70137293,66.0056651 9.42200743,67.1834716 C9.18868851,68.1696196 9.91658181,68.973692 10.8891636,68.973692 C12.6499783,68.973692 14.0035204,67.1170408 14.0035204,64.4369889 C14.0035204,62.06489 12.299066,60.4063942 9.86525652,60.4063942 C7.04634497,60.4063942 5.39175409,62.5207287 5.39175409,64.7057981 C5.39175409,65.5572979 5.71976491,66.4703558 6.12906785,66.9667188 C6.20995391,67.064822 6.22189191,67.1508247 6.19777227,67.2508769 C6.12257098,67.5637838 5.95543894,68.2367001 5.92262974,68.3744343 C5.87942554,68.555779 5.77904887,68.5941919 5.59128927,68.5068899 C4.35395999,67.9309398 3.58034496,66.1218784 3.58034496,64.668847 C3.58034496,61.5435951 5.85100173,58.6735901 10.1263496,58.6735901 C13.5630324,58.6735901 16.2338965,61.1225961 16.2338965,64.39549 C16.2338965,67.8098538 14.0810768,70.5577171 11.0930029,70.5577171 C10.0890738,70.5577171 9.14532189,70.0361786 8.82226493,69.4201102 C8.82226493,69.4201102 8.32549786,71.3116822 8.20506209,71.7752359 C7.98140727,72.6358314 7.37760423,73.714479 6.97374242,74.3724524 C7.90068364,74.6594529 8.88577186,74.8142415 9.90708014,74.8142415 C15.3786645,74.8142415 19.8142415,70.3787276 19.8142415,64.9071207 C19.8142415,59.4355951 15.3786645,55 9.90708014,55" id="Pinterest"></path>
            </g>
        </g>
    </g>
</svg>