<?xml version="1.0" encoding="UTF-8"?>
<svg width="128px" height="128px" viewBox="0 0 128 128" version="1.1" xmlns="http://www.w3.org/2000/svg" xmlns:xlink="http://www.w3.org/1999/xlink">
    <!-- Generator: Sketch 51.3 (57544) - http://www.bohemiancoding.com/sketch -->
    <title>Safety Icon</title>
    <desc>Created with Sketch.</desc>
    <defs></defs>
    <g id="Desktop" stroke="none" stroke-width="1" fill="none" fill-rule="evenodd">
        <g id="Ingredients" transform="translate(-355.000000, -2521.000000)" stroke="#EED6D3" stroke-width="2">
            <g id="Explanations" transform="translate(0.000000, 2400.000000)">
                <g id="Safety" transform="translate(235.000000, 121.000000)">
                    <g id="Safety-Icon" transform="translate(120.000000, 0.000000)">
                        <path d="M64,1 C29.2050847,1 1,29.2050847 1,64 C1,98.7907411 29.2073105,127 64,127 C98.7885153,127 127,98.7885153 127,64 C127,29.2073105 98.7907411,1 64,1 Z" id="Stroke-1"></path>
                        <path d="M64,11.6666667 C35.0962847,11.6666667 11.6666667,35.0962847 11.6666667,64 C11.6666667,92.9002394 35.0981421,116.333333 64,116.333333 C92.8983819,116.333333 116.333333,92.8983819 116.333333,64 C116.333333,35.0981421 92.9002394,11.6666667 64,11.6666667 Z" id="Stroke-1"></path>
                        <g id="Plus" transform="translate(38.000000, 38.000000)">
                            <path d="M26,0.4 L26,51.6" id="Stroke-3"></path>
                            <path d="M0.4,26 L51.6,26" id="Stroke-5"></path>
                        </g>
                    </g>
                </g>
            </g>
        </g>
    </g>
</svg>