<?xml version="1.0" encoding="UTF-8"?>
<svg width="110px" height="125px" viewBox="0 0 110 125" version="1.1" xmlns="http://www.w3.org/2000/svg" xmlns:xlink="http://www.w3.org/1999/xlink">
    <!-- Generator: Sketch 51.3 (57544) - http://www.bohemiancoding.com/sketch -->
    <title>Water Icon</title>
    <desc>Created with Sketch.</desc>
    <defs>
        <linearGradient x1="-2.22044605e-14%" y1="50%" x2="100%" y2="50%" id="linearGradient-1">
            <stop stop-color="#F17BB1" offset="0%"></stop>
            <stop stop-color="#DE4579" offset="100%"></stop>
        </linearGradient>
    </defs>
    <g id="Desktop" stroke="none" stroke-width="1" fill="none" fill-rule="evenodd">
        <g id="Ingredients" transform="translate(-965.000000, -1179.000000)" fill="url(#linearGradient-1)" stroke="#FFFFFF" stroke-width="2">
            <g id="Clean" transform="translate(803.000000, 1179.000000)">
                <path d="M219.762399,1 L244.94189,34.6089232 C257.023672,50.7525087 261.994396,66.8747011 259.254667,81.2280984 C255.582331,100.456369 242.524682,113.601555 227.425466,113.055925 C212.456411,112.520523 200.62034,99.9032207 197.929993,81.7787971 C196.306453,70.7327736 200.899336,58.4667714 211.179842,46.152863 L204.59076,37.2982414 C191.062219,52.6891723 185.096134,68.5917685 187.264124,83.3419594 C190.753928,106.84589 206.743691,123.059414 227.035887,123.786901 C227.472635,123.801888 227.906102,123.809358 228.339809,123.809358 C248.289842,123.809358 265.24457,107.321486 269.844176,83.2356427 C273.157041,65.8843863 267.553157,46.8555619 253.582878,28.1882782 L233.213375,1 L219.762399,1 Z M204.438645,1.59460331 L183.530163,25.6843897 C170.068381,41.2118367 163.045551,57.5104482 163,73.1990223 L162.999995,73.5136364 C163.006199,75.4999752 163.123636,77.4718181 163.352624,79.4254558 C166.006266,102.059509 180.811464,120.279434 197.930895,123.352443 C193.246837,120.383507 188.265601,115.496823 184.139343,109.581359 C177.660181,100.292738 173.790325,89.3959245 173.668976,78.2881132 C173.564412,68.6766476 176.229721,58.9002026 180.903499,49.4049218 C184.21308,42.681155 188.331449,36.5752491 191.687467,32.7048498 L203.792617,18.7580789 L204.534979,19.7556522 L222.634015,44.0768726 L222.694834,44.1573456 C233.407518,58.0438901 237.756772,71.5135282 235.188593,83.1051365 C233.415544,91.0593737 229.945165,97.360379 224.74473,102.529605 C235.70377,103.330777 245.90071,91.5147184 246.662524,76.2768337 C246.983764,69.8577525 246.026495,64.4468848 243.682843,58.7935366 C241.471981,53.4605016 239.253599,49.7967948 231.265645,37.645867 L204.438645,1.59460331 Z" id="Water-Icon"></path>
            </g>
        </g>
    </g>
</svg>